<svg xmlns="http://www.w3.org/2000/svg" width="1080" height="1080" viewBox="0 0 1080 1080" fill="none">
  <g clip-path="url(#a)" stroke="#96C6CC" stroke-width="1.5px" stroke-miterlimit="10">
    <g opacity=".5" clip-path="url(#b)">
      <path d="M283.838-690.073c-188.71-50.425-382.78 61.621-433.467 250.263C-200.315-251.169-88.424-57.368 100.287-6.943c188.712 50.425 382.782-61.62 433.468-250.262 50.686-188.641-61.205-382.443-249.917-432.868Z"/>
      <path d="M309.242-691.462c-190.012-50.773-385.42 62.046-436.456 251.988C-178.249-249.533-65.587-54.395 124.425-3.623 314.437 47.15 509.845-65.669 560.881-255.61c51.035-189.942-61.627-385.08-251.639-435.852Z"/>
      <path d="M334.753-693.253c-191.537-51.18-388.513 62.544-439.958 254.01C-156.65-247.777-43.083-51.073 148.453.107c191.537 51.18 388.513-62.545 439.958-254.011 51.446-191.465-62.121-388.169-253.658-439.349Z"/>
      <path d="M360.373-695.444C167.092-747.09-31.677-632.331-83.591-439.122-135.504-245.913-20.903-47.418 172.377 4.228c193.281 51.646 392.05-63.114 443.963-256.323 51.914-193.209-62.687-391.703-255.967-443.349Z"/>
      <path d="M386.092-698.017C190.855-750.185-9.926-634.264-62.365-439.1-114.804-243.936.957-43.432 196.194 8.736 391.43 60.906 592.211-55.016 644.65-250.18c52.439-195.165-63.321-395.668-258.558-447.837Z"/>
      <path d="M411.914-700.963C214.516-753.709 11.512-636.505-41.507-439.18-94.527-241.855 22.515-39.132 219.914 13.615 417.312 66.36 620.316-50.844 673.335-248.17c53.02-197.325-64.022-400.048-261.421-452.794Z"/>
      <path d="M437.835-704.275C238.074-757.652 32.64-639.045-21.014-439.358c-53.654 199.687 64.79 404.836 264.55 458.214 199.761 53.378 405.195-65.23 458.849-264.917 53.654-199.686-64.789-404.836-264.55-458.214Z"/>
      <path d="M463.848-707.929C261.532-761.989 53.47-641.865-.87-439.624-55.21-237.382 64.748-29.609 267.064 24.451c202.316 54.06 410.377-66.064 464.718-268.305 54.34-202.241-65.618-410.014-267.934-464.075Z"/>
      <path d="M489.951-711.925C284.895-766.717 74.016-644.966 18.939-439.986-36.137-235.005 85.446-24.418 290.502 30.374c205.056 54.793 415.935-66.958 471.012-271.938 55.076-204.981-66.507-415.568-271.563-470.361Z"/>
      <path d="M516.143-716.241c-207.975-55.572-421.856 67.912-477.717 275.81-55.86 207.898 67.454 421.483 275.429 477.055C521.83 92.197 735.71-31.287 791.571-239.185c55.86-207.898-67.453-421.483-275.428-477.056Z"/>
      <path d="M542.601-720.868c-211.065-56.398-428.123 68.921-484.813 279.907-56.69 210.987 68.455 427.745 279.52 484.143 211.065 56.398 428.123-68.92 484.813-279.907 56.691-210.987-68.455-427.745-279.52-484.143Z"/>
      <path d="M568.956-725.789c-214.318-57.268-434.722 69.983-492.287 284.222C19.105-227.329 146.18-7.229 360.498 50.038c214.318 57.268 434.723-69.983 492.287-284.222 57.564-214.238-69.511-434.338-283.829-491.605Z"/>
      <path d="M595.385-730.995c-217.728-58.179-441.638 71.096-500.118 288.743C36.787-224.605 165.883-1.005 383.611 57.173c217.728 58.179 441.638-71.096 500.118-288.743 58.48-217.646-70.616-441.247-288.344-499.425Z"/>
      <path d="M621.318-736.465c-221.285-59.13-448.855 72.257-508.29 293.461C53.593-221.801 184.798 5.454 406.084 64.583c221.285 59.129 448.855-72.258 508.29-293.461 59.435-221.204-71.77-448.458-293.056-507.587Z"/>
      <path d="M647.891-742.197c-224.986-60.118-456.36 73.466-516.789 298.368-60.43 224.902 72.97 455.956 297.955 516.074 224.986 60.118 456.36-73.466 516.789-298.368 60.434-224.902-72.97-455.956-297.955-516.074Z"/>
      <path d="M674.523-748.17c-228.82-61.143-464.138 74.718-525.597 303.453C87.466-215.981 223.14 19.011 451.96 80.153 680.78 141.297 916.098 5.436 977.557-223.3c61.463-228.735-74.214-463.728-303.034-524.87Z"/>
      <path d="M701.41-754.379c-232.783-62.201-472.177 76.013-534.7 308.71-62.524 232.697 75.499 471.759 308.282 533.96 232.783 62.202 472.177-76.012 534.698-308.709 62.53-232.697-75.497-471.759-308.28-533.961Z"/>
      <path d="M728.168-760.807C491.3-824.1 247.706-683.46 184.085-446.68 120.464-209.9 260.909 33.358 497.777 96.65c236.868 63.294 480.463-77.346 544.083-314.126 63.62-236.78-76.824-480.038-313.692-543.331Z"/>
      <path d="M754.979-767.444c-241.069-64.415-488.983 78.718-553.732 319.698-64.749 240.98 78.186 488.551 319.255 552.966 241.069 64.416 488.988-78.718 553.728-319.697 64.75-240.98-78.182-488.551-319.251-552.967Z"/>
      <path d="M782.033-774.276c-245.379-65.567-497.726 80.125-563.632 325.414-65.907 245.288 79.584 497.286 324.963 562.853C788.743 179.558 1041.09 33.865 1107-211.423c65.9-245.288-79.59-497.286-324.967-562.853Z"/>
      <path d="M808.952-781.3c-249.794-66.747-506.681 81.567-573.773 331.268-67.093 249.701 81.016 506.233 330.81 572.979 249.793 66.747 506.681-81.567 573.771-331.268 67.09-249.701-81.01-506.233-330.808-572.979Z"/>
      <path d="M835.918-788.503c-254.306-67.952-515.834 83.041-584.139 337.253-68.304 254.212 82.48 515.379 336.787 583.331 254.306 67.953 515.834-83.04 584.134-337.253 68.31-254.212-82.48-515.378-336.782-583.331Z"/>
      <path d="M863.118-795.877c-258.913-69.184-525.179 84.545-594.721 343.363-69.542 258.817 83.974 524.715 342.887 593.898 258.914 69.184 525.176-84.545 594.726-343.362 69.54-258.818-83.98-524.715-342.892-593.899Z"/>
      <path d="M890.171-803.408c-263.609-70.438-534.703 86.078-605.506 349.589-70.803 263.511 85.497 534.23 349.105 604.669 263.609 70.438 534.7-86.078 605.51-349.589 70.8-263.511-85.5-534.231-349.109-604.669Z"/>
      <path d="M917.266-811.09c-268.387-71.715-544.395 87.638-616.481 355.926-72.087 268.287 87.046 543.914 355.433 615.629C924.605 232.18 1200.61 72.826 1272.7-195.461c72.09-268.288-87.05-543.914-355.434-615.629Z"/>
      <path d="M944.397-818.916c-273.246-73.013-554.251 89.225-627.642 362.369-73.391 273.145 88.622 553.76 361.868 626.774 273.246 73.013 554.247-89.225 627.637-362.369 73.4-273.144-88.62-553.76-361.863-626.774Z"/>
      <path d="M971.002-826.881c-278.18-74.332-564.259 90.836-638.976 368.913-74.717 278.076 90.223 563.76 368.403 638.091 278.18 74.332 564.261-90.836 638.971-368.912 74.72-278.077-90.22-563.76-368.398-638.092Z"/>
      <path d="M998.208-834.974c-283.185-75.669-574.411 92.47-650.472 375.55-76.061 283.079 91.846 573.902 375.031 649.571 283.183 75.669 574.413-92.47 650.473-375.55 76.06-283.079-91.85-573.902-375.032-649.571Z"/>
      <path d="M1025.45-843.191c-288.261-77.024-584.704 94.127-662.127 382.277s93.491 584.183 381.748 661.207c288.259 77.025 584.699-94.126 662.119-382.277 77.43-288.15-93.49-584.182-381.74-661.207Z"/>
      <path d="M1052.9-851.521c-293.393-78.397-595.118 95.804-673.921 389.089-78.803 293.285 95.157 594.593 388.551 672.99 293.39 78.397 595.12-95.804 673.92-389.089 78.81-293.285-95.16-594.593-388.55-672.99Z"/>
      <path d="M1420.34-599.515C1265.91-866.99 923.593-958.461 655.746-803.82 387.9-649.179 295.956-306.985 450.383-39.51 604.81 227.966 947.13 319.436 1214.98 164.795c267.84-154.641 359.79-496.834 205.36-764.31Z"/>
      <path d="M1453.65-603.48C1296.5-875.664 948.157-968.744 675.596-811.381 403.034-654.018 309.471-305.801 466.617-33.617s505.492 365.265 778.053 207.902c272.56-157.364 366.12-505.581 208.98-777.765Z"/>
      <path d="M1486.48-607.491c-159.89-276.941-514.329-371.648-791.653-211.535C417.502-658.912 322.304-304.61 482.196-27.669 642.088 249.274 996.522 343.98 1273.85 183.867c277.32-160.113 372.52-514.416 212.63-791.357Z"/>
      <path d="M1519.96-611.554c-162.67-281.745-523.249-378.095-805.384-215.204C432.442-663.868 335.593-303.42 498.258-21.676S1021.5 356.42 1303.64 193.528c282.13-162.89 378.98-523.338 216.32-805.082Z"/>
    </g>
    <g opacity=".5" clip-path="url(#c)">
      <path d="M719.627 1869.27c193.281 51.65 392.053-63.11 443.963-256.32 51.91-193.21-62.69-391.7-255.967-443.35-193.281-51.64-392.05 63.12-443.964 256.32-51.913 193.21 62.688 391.71 255.968 443.35Z"/>
      <path d="M693.908 1871.85c195.237 52.17 396.022-63.76 448.452-258.92 52.44-195.16-63.32-395.67-258.554-447.84-195.236-52.17-396.017 63.76-448.456 258.92-52.439 195.16 63.321 395.67 258.558 447.84Z"/>
      <path d="M668.086 1874.79c197.398 52.75 400.404-64.45 453.424-261.78 53.02-197.33-64.03-400.05-261.424-452.79-197.398-52.75-400.402 64.45-453.421 261.78-53.02 197.32 64.022 400.05 261.421 452.79Z"/>
      <path d="M642.165 1878.1c199.761 53.38 405.195-65.22 458.845-264.91 53.66-199.69-64.79-404.84-264.546-458.22-199.761-53.37-405.195 65.23-458.849 264.92-53.654 199.69 64.789 404.84 264.55 458.21Z"/>
      <path d="M616.152 1881.76c202.316 54.06 410.378-66.07 464.718-268.31 54.34-202.24-65.62-410.01-267.934-464.07-202.316-54.06-410.377 66.06-464.718 268.3-54.34 202.24 65.618 410.02 267.934 464.08Z"/>
      <path d="M590.049 1885.75c205.056 54.8 415.931-66.95 471.011-271.93 55.08-204.98-66.506-415.57-271.562-470.36-205.056-54.8-415.935 66.95-471.012 271.93-55.076 204.98 66.507 415.57 271.563 470.36Z"/>
      <path d="M563.857 1890.07c207.975 55.57 421.856-67.91 477.713-275.81 55.86-207.9-67.45-421.48-275.425-477.05-207.975-55.58-421.856 67.91-477.716 275.81-55.86 207.89 67.453 421.48 275.428 477.05Z"/>
      <path d="M537.399 1894.7c211.064 56.4 428.123-68.92 484.811-279.91 56.69-210.99-68.453-427.74-279.518-484.14-211.065-56.4-428.123 68.92-484.813 279.9-56.691 210.99 68.455 427.75 279.52 484.15Z"/>
      <path d="M511.044 1899.62c214.318 57.27 434.722-69.98 492.286-284.22 57.56-214.24-69.51-434.34-283.828-491.61-214.318-57.27-434.723 69.98-492.287 284.22-57.564 214.24 69.511 434.34 283.829 491.61Z"/>
      <path d="M484.615 1904.83c217.728 58.17 441.638-71.1 500.118-288.75 58.477-217.64-70.616-441.25-288.344-499.42-217.728-58.18-441.638 71.09-500.118 288.74-58.48 217.65 70.616 441.25 288.344 499.43Z"/>
      <path d="M458.682 1910.3c221.285 59.12 448.854-72.26 508.29-293.47 59.438-221.2-71.77-448.45-293.056-507.58-221.285-59.13-448.855 72.26-508.29 293.46-59.436 221.2 71.77 448.46 293.056 507.59Z"/>
      <path d="M432.11 1916.03c224.986 60.12 456.36-73.47 516.789-298.37 60.431-224.9-72.97-455.96-297.955-516.08-224.986-60.11-456.36 73.47-516.789 298.37-60.43 224.91 72.97 455.96 297.955 516.08Z"/>
      <path d="M405.477 1922c228.82 61.14 464.138-74.72 525.597-303.45 61.459-228.74-74.214-463.73-303.034-524.87-228.82-61.15-464.138 74.71-525.597 303.45-61.46 228.74 74.214 463.73 303.034 524.87Z"/>
      <path d="M378.589 1928.21c232.784 62.2 472.177-76.01 534.701-308.71 62.523-232.7-75.5-471.76-308.283-533.96-232.783-62.2-472.176 76.01-534.7 308.71-62.523 232.7 75.499 471.76 308.282 533.96Z"/>
      <path d="M351.832 1934.64c236.868 63.29 480.462-77.35 544.083-314.13 63.621-236.78-76.824-480.04-313.692-543.33-236.868-63.29-480.463 77.35-544.084 314.13-63.62 236.78 76.824 480.03 313.693 543.33Z"/>
      <path d="M325.021 1941.27c241.068 64.42 488.983-78.71 553.732-319.69 64.749-240.98-78.186-488.56-319.255-552.97-241.069-64.42-488.984 78.72-553.733 319.7-64.749 240.98 78.187 488.55 319.256 552.96Z"/>
      <path d="M297.967 1948.11c245.379 65.56 497.726-80.13 563.633-325.42 65.907-245.29-79.584-497.28-324.964-562.85-245.379-65.568-497.726 80.12-563.632 325.41-65.907 245.29 79.584 497.29 324.963 562.86Z"/>
      <path d="M271.048 1955.13c249.794 66.75 506.681-81.57 573.774-331.27 67.092-249.7-81.017-506.23-330.81-572.98-249.794-66.744-506.681 81.57-573.773 331.27-67.093 249.7 81.016 506.23 330.809 572.98Z"/>
      <path d="M244.082 1962.33c254.307 67.96 515.835-83.04 584.139-337.25 68.305-254.21-82.48-515.38-336.786-583.33C237.128 973.796-24.4 1124.79-92.705 1379c-68.304 254.21 82.48 515.38 336.787 583.33Z"/>
      <path d="M216.881 1969.71c258.914 69.18 525.179-84.55 594.721-343.37 69.542-258.81-83.973-524.71-342.887-593.89-258.913-69.188-525.18 84.54-594.721 343.36-69.542 258.82 83.974 524.71 342.887 593.9Z"/>
      <path d="M189.83 1977.24c263.608 70.44 534.703-86.08 605.506-349.59s-85.497-534.23-349.106-604.67c-263.609-70.438-534.703 86.08-605.506 349.59s85.497 534.23 349.106 604.67Z"/>
      <path d="M162.734 1984.92c268.386 71.71 544.395-87.64 616.481-355.93 72.087-268.28-87.046-543.91-355.433-615.62C155.395 941.65-120.613 1101-192.7 1369.29c-72.086 268.29 87.047 543.91 355.434 615.63Z"/>
      <path d="M135.603 1992.75c273.246 73.01 554.251-89.23 627.642-362.37 73.392-273.15-88.622-553.76-361.868-626.78-273.245-73.01-554.25 89.23-627.641 362.37-73.392 273.15 88.622 553.76 361.867 626.78Z"/>
      <path d="M108.999 2000.71c278.18 74.33 564.259-90.83 638.976-368.91 74.716-278.08-90.223-563.76-368.403-638.093-278.18-74.332-564.259 90.833-638.976 368.913-74.717 278.08 90.223 563.76 368.403 638.09Z"/>
      <path d="M81.793 2008.8c283.184 75.67 574.41-92.47 650.471-375.55 76.061-283.08-91.846-573.9-375.03-649.567-283.185-75.669-574.411 92.467-650.472 375.547-76.061 283.08 91.846 573.9 375.03 649.57Z"/>
      <path d="M54.554 2017.02c288.257 77.03 584.699-94.13 662.123-382.28 77.423-288.15-93.491-584.18-381.748-661.203-288.257-77.025-584.7 94.123-662.123 382.273-77.424 288.15 93.491 584.19 381.748 661.21Z"/>
      <path d="M27.1 2025.35c293.393 78.4 595.118-95.8 673.921-389.09 78.804-293.28-95.156-594.59-388.55-672.988-293.394-78.397-595.12 95.808-673.923 389.088-78.803 293.29 95.157 594.59 388.551 672.99Z"/>
      <path d="M-340.34 1773.34c154.427 267.48 496.747 358.95 764.593 204.31 267.847-154.64 359.791-496.83 205.364-764.31C475.19 945.864 132.87 854.393-134.977 1009.03c-267.846 154.65-359.79 496.84-205.363 764.31Z"/>
      <path d="M-373.648 1777.31c157.145 272.18 505.491 365.26 778.052 207.9 272.562-157.36 366.124-505.58 208.979-777.76C456.237 935.263 107.891 842.182-164.67 999.545c-272.561 157.365-366.124 505.585-208.978 777.765Z"/>
      <path d="M-406.478 1781.32c159.892 276.94 514.326 371.65 791.651 211.54 277.325-160.12 372.523-514.42 212.631-791.36C437.912 924.557 83.478 829.85-193.847 989.963-471.172 1150.08-566.37 1504.38-406.478 1781.32Z"/>
      <path d="M-439.957 1785.38c162.665 281.75 523.246 378.1 805.381 215.21 282.134-162.89 378.983-523.34 216.318-805.08C419.077 913.762 58.496 817.411-223.639 980.302c-282.134 162.888-378.983 523.338-216.318 805.078Z"/>
    </g>
  </g>
  <defs>
    <clipPath id="a">
      <rect width="1080" height="1080" rx="10" fill="#fff"/>
    </clipPath>
    <clipPath id="b">
      <path fill="#fff" d="M-120-113h1200v772.83H-120z"/>
    </clipPath>
    <clipPath id="c">
      <path fill="#fff" d="M1200 1286.83H0V514h1200z"/>
    </clipPath>
  </defs>
</svg>
