<?xml version="1.0" encoding="utf-8"?>
<!-- Generator: Adobe Illustrator 27.5.0, SVG Export Plug-In . SVG Version: 6.00 Build 0)  -->
<svg version="1.1" id="Layer_1" xmlns="http://www.w3.org/2000/svg" xmlns:xlink="http://www.w3.org/1999/xlink" x="0px" y="0px"
	 viewBox="0 0 214 214" style="enable-background:new 0 0 214 214;" xml:space="preserve">
<style type="text/css">
	.st0{clipPath:url(#SVGID_00000011727376126811089020000003960640300984920229_);}
	.st1{fill:#F028B8;}
</style>
<g>
	<defs>
		<rect id="SVGID_1_" x="32" y="32" transform="matrix(0.7071 -0.7071 0.7071 0.7071 -44.3209 107)" width="150" height="150"/>
	</defs>
	<clipPath id="SVGID_00000183936554898985354570000000099504035103416976_">
		<use xlink:href="#SVGID_1_"  style="overflow:visible;"/>
	</clipPath>
	<g style="clipPath:url(#SVGID_00000183936554898985354570000000099504035103416976_);">
		<path class="st1" d="M160.1,53.9C160.1,53.8,160.1,53.8,160.1,53.9c18.8,18.9,18.8,49.6-0.2,68.5c-19,19-49.7,19-68.7,0
			c-19-19-19-49.7,0-68.7c18.3-18.3,47.7-18.9,66.8-1.8c-29.4-27.3-75.4-26.7-104,2c-29.3,29.3-29.3,76.8,0,106.1
			c29.3,29.3,76.8,29.3,106.1,0C189.4,130.7,189.4,83.2,160.1,53.9z"/>
		<path class="st1" d="M126.1,53.3c-9.2,9.2-9.2,24.2,0,33.4c9.2,9.2,24.2,9.2,33.4,0c9.2-9.2,9.2-24.2,0-33.4
			C150.3,44.1,135.4,44.1,126.1,53.3z"/>
	</g>
</g>
</svg>
