<svg xmlns="http://www.w3.org/2000/svg" width="508" height="235" viewBox="0 0 508 235" fill="none">
  <path d="M34.984 99H.404l.133-.931 6.118-1.064c3.059-.665 3.857-1.463 4.522-4.123l20.216-80.864c.665-2.66.133-3.591-2.527-4.123l-5.985-1.064.133-.931h29.925c25.802 0 43.358 14.497 43.358 37.772C96.297 76.789 69.032 99 34.984 99Zm-10.108-2.128h10.773c28.728 0 50.673-23.94 50.673-53.998 0-22.211-13.034-34.846-34.447-34.846H41.9L20.753 92.882c-.931 3.325.133 3.99 4.123 3.99Zm99.382 3.192c-11.305 0-19.551-9.177-19.551-25.004 0-19.019 16.625-43.757 35.112-43.757 9.576 0 15.029 4.522 15.029 11.571 0 10.64-11.571 17.423-39.767 23.674-.532 2.926-.931 5.719-.931 8.246 0 13.167 5.719 20.216 14.763 20.216 5.719 0 12.103-2.66 20.216-13.433l.665.665c-7.315 11.837-15.428 17.822-25.536 17.822Zm-8.911-35.112c24.871-5.852 31.787-15.295 31.787-23.674 0-4.921-2.394-8.379-7.182-8.379-10.906 0-21.014 17.024-24.605 32.053Zm82.14-4.788h-32.851l.798-3.724h32.851l-.798 3.724ZM214.011 99h-9.177l15.162-60.781-7.448-1.729.133-.798 17.822-3.857.532.399-12.502 45.087h.665c15.295-36.841 21.945-45.752 32.984-45.752h2.261l-2.261 9.044-.532.399h-11.039c-3.857 3.724-10.108 13.167-22.477 41.895L214.011 99Zm61.416-80.066c-3.325 0-6.118-2.527-6.118-6.118s2.793-5.985 6.118-5.985c3.591 0 6.251 2.394 6.251 5.985s-2.66 6.118-6.251 6.118Zm-16.226 81.13c-4.788 0-7.182-2.926-7.182-6.65 0-1.463.665-3.724 1.064-5.586l12.502-49.609-7.448-1.729.133-.798 17.689-3.857.532.399-14.364 55.86c-.532 1.995-.798 3.591-.798 4.921 0 1.729.665 3.059 2.527 3.059 3.192 0 5.985-4.389 8.911-11.438l.931.133c-3.325 9.576-7.714 15.295-14.497 15.295Zm40.952 0c-8.512 0-15.96-2.793-20.615-6.118l4.256-16.226h.931l2.527 16.625c2.926 2.793 8.246 3.99 13.034 3.99 8.379 0 15.561-5.586 15.561-13.832 0-6.916-5.054-10.906-11.837-15.96-6.251-4.788-12.901-9.576-12.901-17.689 0-12.369 11.305-19.551 22.876-19.551 7.182 0 14.364 2.527 18.62 5.586l-4.123 16.093h-.798l-2.66-16.492c-3.325-2.394-6.783-3.458-11.039-3.458-7.98 0-14.763 5.187-14.763 13.965 0 7.049 4.788 10.374 11.571 15.428 6.384 4.655 13.167 10.108 13.167 17.955 0 12.236-11.438 19.684-23.807 19.684Zm79.079 0c-4.788 0-7.581-2.926-9.975-7.98l-14.763-28.063h-.665L345.317 99h-9.177l22.743-91.903-7.98-1.995.133-.798L369.257.181l.532.399-15.162 61.446 35.245-23.142-6.384-5.586.133-.931h19.817l-.133.798-41.23 25.802 15.561 29.792c1.995 3.857 4.123 5.586 6.384 5.586 3.192 0 5.719-3.325 9.044-12.103l.931.133c-3.724 11.172-8.113 17.689-14.763 17.689Zm19.25 27.132h-10.108l.266-1.33 28.728-26.6-5.453-61.313-7.315-1.729.133-.665 15.428-3.724.532.399 3.99 57.722h.532c14.63-17.556 22.61-29.393 25.27-38.038l-1.33-18.487 8.911-1.596.532.399c0 17.423-10.108 33.649-39.634 67.298l-20.482 27.664ZM42.565 165.771c18.487 0 31.787 13.3 31.787 34.447 0 20.482-13.3 34.58-31.787 34.58-12.635 0-21.679-6.384-25.669-16.093L15.832 234H9.98v-93.1h6.783v41.363c4.256-9.576 13.167-16.492 25.802-16.492Zm-.532 62.909c15.029 0 25.403-11.704 25.403-28.462 0-16.625-10.374-28.462-25.403-28.462-15.029 0-25.403 11.837-25.403 28.329 0 16.891 10.374 28.595 25.403 28.595Zm94.691-28.994v-33.117h6.783V234h-5.985l-.931-14.231c-3.857 8.645-11.704 15.029-23.674 15.029-14.896 0-25.935-9.31-25.935-30.457v-37.772h6.783v37.373c0 16.093 7.714 24.605 20.216 24.605 13.965 0 22.743-11.172 22.743-28.861Zm19.692 13.566h6.916c.532 9.709 8.911 15.694 21.812 15.694 11.039 0 19.418-5.054 19.418-13.034 0-9.975-9.177-11.438-20.482-13.034-13.832-1.862-26.334-4.389-26.334-17.955 0-11.571 10.773-19.285 25.802-19.152 14.63 0 25.403 6.65 26.6 19.817h-6.916c-1.197-8.778-8.911-13.965-19.684-13.965-11.438 0-19.019 5.054-19.019 12.768 0 9.443 9.31 10.64 19.817 12.103 14.497 1.995 26.999 4.788 26.999 19.019 0 11.97-11.704 19.285-26.201 19.285-16.891 0-28.196-7.581-28.728-21.546Zm71.329-60.914c-2.66 0-4.788-1.995-4.788-4.788s2.128-4.788 4.788-4.788 4.788 1.995 4.788 4.788-2.128 4.788-4.788 4.788ZM224.287 234v-67.431h6.783V234h-6.783Zm53.851-68.229c15.295 0 26.6 9.177 26.6 30.457V234h-6.783v-37.506c0-15.96-7.847-24.472-20.881-24.472-14.364 0-23.275 11.172-23.275 28.728V234h-6.783v-67.431h5.852l1.064 14.364c3.857-8.778 11.837-15.162 24.206-15.162Zm70.365 69.027c-19.152 0-32.319-13.832-32.319-34.979 0-19.95 12.635-34.048 31.122-34.048 18.088 0 30.457 11.704 31.122 31.787 0 .798-.133 1.862-.133 2.793h-55.062v1.197c.266 15.694 9.709 27.132 24.738 27.132 11.039 0 19.95-6.517 22.61-17.024h6.916c-2.926 13.566-14.231 23.142-28.994 23.142Zm-24.738-40.166h47.348c-1.064-14.763-10.507-22.876-23.674-22.876-12.369 0-22.61 9.177-23.674 22.876Zm64.882 18.62h6.916c.532 9.709 8.911 15.694 21.812 15.694 11.039 0 19.418-5.054 19.418-13.034 0-9.975-9.177-11.438-20.482-13.034-13.832-1.862-26.334-4.389-26.334-17.955 0-11.571 10.773-19.285 25.802-19.152 14.63 0 25.403 6.65 26.6 19.817h-6.916c-1.197-8.778-8.911-13.965-19.684-13.965-11.438 0-19.019 5.054-19.019 12.768 0 9.443 9.31 10.64 19.817 12.103 14.497 1.995 26.999 4.788 26.999 19.019 0 11.97-11.704 19.285-26.201 19.285-16.891 0-28.196-7.581-28.728-21.546Zm63.512 0h6.916c.532 9.709 8.911 15.694 21.812 15.694 11.039 0 19.418-5.054 19.418-13.034 0-9.975-9.177-11.438-20.482-13.034-13.832-1.862-26.334-4.389-26.334-17.955 0-11.571 10.773-19.285 25.802-19.152 14.63 0 25.403 6.65 26.6 19.817h-6.916c-1.197-8.778-8.911-13.965-19.684-13.965-11.438 0-19.019 5.054-19.019 12.768 0 9.443 9.31 10.64 19.817 12.103 14.497 1.995 26.999 4.788 26.999 19.019 0 11.97-11.704 19.285-26.201 19.285-16.891 0-28.196-7.581-28.728-21.546Z" fill="#fff"/>
</svg>
