<svg xmlns="http://www.w3.org/2000/svg" width="818" height="231" viewBox="0 0 818 231" fill="none">
<path d="M34.984 95H0.404L0.537 94.069L6.655 93.005C9.714 92.34 10.512 91.542 11.177 88.882L31.393 8.01799C32.058 5.358 31.526 4.42699 28.866 3.89499L22.881 2.831L23.014 1.89999H52.939C78.741 1.89999 96.297 16.397 96.297 39.672C96.297 72.789 69.032 95 34.984 95ZM24.876 92.872H35.649C64.377 92.872 86.322 68.932 86.322 38.874C86.322 16.663 73.288 4.028 51.875 4.028H41.9L20.753 88.882C19.822 92.207 20.886 92.872 24.876 92.872ZM126.12 96.064C113.352 96.064 104.973 85.158 104.973 70.794C104.973 50.977 119.869 27.303 140.085 27.303C152.986 27.303 161.365 38.209 161.365 52.573C161.365 72.523 146.602 96.064 126.12 96.064ZM126.12 94.468C141.681 94.468 152.055 65.075 152.055 48.583C152.055 35.682 147.666 28.899 140.218 28.899C125.854 28.899 114.283 58.425 114.283 74.784C114.283 87.685 118.672 94.468 126.12 94.468ZM216.718 96.064C211.797 96.064 209.403 93.005 209.403 89.414C209.403 87.951 209.802 86.222 210.334 84.36L220.309 48.317C221.107 45.391 221.639 42.864 221.639 40.603C221.639 35.682 218.979 33.022 214.723 33.022C208.738 33.022 201.556 39.406 183.069 78.242L178.813 95H169.636L184.798 34.219L177.35 32.49L177.483 31.692L195.305 27.835L195.837 28.234L183.335 73.321H184C200.891 35.017 209.669 27.303 219.644 27.303C226.427 27.303 231.082 31.426 231.082 39.406C231.082 41.933 230.55 45.125 229.619 48.184L219.777 84.094C219.245 86.089 218.846 87.685 218.846 89.015C218.846 90.744 219.511 92.074 221.24 92.074C224.565 92.074 227.358 87.685 230.284 80.636L231.215 80.769C227.89 90.345 223.368 96.064 216.718 96.064ZM244.336 25.042L244.07 24.111C249.257 21.185 252.715 17.86 252.715 13.338C252.715 11.077 251.119 8.55 247.528 8.284C247.395 4.028 249.523 0.968998 253.779 0.968998C257.237 0.968998 259.764 3.22999 259.764 7.619C259.764 14.801 253.38 21.717 244.336 25.042ZM269.135 96.064C262.884 96.064 259.692 92.473 259.692 87.685C259.692 85.424 259.825 84.094 261.022 79.705L272.992 31.426H267.672L267.938 30.628L285.627 14.801L286.425 14.934L282.834 29.564L299.326 28.5L299.725 29.032L298.661 31.293H282.302L270.332 79.173C269.534 82.365 269.002 84.892 269.002 87.153C269.002 89.414 270.199 91.675 273.258 91.675C277.78 91.675 282.967 87.286 288.553 76.912L289.351 77.311C285.095 87.685 277.514 96.064 269.135 96.064ZM374.652 123.196H347.387L347.52 122.398L354.702 121.334C357.229 121.068 358.027 120.403 358.559 118.275L374.918 54.834H374.253C360.288 84.493 354.303 96.064 343.131 96.064C333.954 96.064 328.501 87.951 328.501 73.853C328.501 51.11 344.86 27.303 364.943 27.303C372.125 27.303 379.307 31.16 382.765 36.347L389.681 27.702H390.346L367.869 118.142C367.204 120.536 367.736 121.334 369.997 121.6L374.785 122.398L374.652 123.196ZM346.855 90.744C353.372 90.744 359.49 81.7 375.982 47.785L377.977 43.529C377.312 36.214 372.657 28.899 364.943 28.899C350.446 28.899 338.077 53.637 338.077 73.188C338.077 84.227 341.535 90.744 346.855 90.744ZM410.228 96.064C403.844 96.064 399.455 92.34 399.455 84.36C399.455 81.966 399.987 79.173 400.785 75.981L411.824 34.219L404.376 32.49L404.509 31.692L422.198 27.835L422.863 28.234L410.228 75.981C409.563 78.508 409.031 80.769 409.031 83.562C409.031 87.552 411.292 90.345 415.149 90.345C421.001 90.345 428.05 83.828 446.936 44.327L450.527 29.697L459.571 27.835L460.103 28.234L446.138 84.094C445.606 86.089 445.207 87.685 445.207 89.015C445.207 90.744 445.872 92.074 447.734 92.074C450.926 92.074 453.719 87.685 456.645 80.636L457.576 80.769C454.384 90.345 449.862 96.064 443.079 96.064C438.291 96.064 435.897 93.005 435.897 89.414C435.897 87.951 436.163 86.222 436.695 84.094L446.138 50.179H445.606C428.715 88.217 420.336 96.064 410.228 96.064ZM489.402 96.064C476.634 96.064 468.255 85.158 468.255 70.794C468.255 50.977 483.151 27.303 503.367 27.303C516.268 27.303 524.647 38.209 524.647 52.573C524.647 72.523 509.884 96.064 489.402 96.064ZM489.402 94.468C504.963 94.468 515.337 65.075 515.337 48.583C515.337 35.682 510.948 28.899 503.5 28.899C489.136 28.899 477.565 58.425 477.565 74.784C477.565 87.685 481.954 94.468 489.402 94.468ZM544.226 96.064C537.975 96.064 534.783 92.473 534.783 87.685C534.783 85.424 534.916 84.094 536.113 79.705L548.083 31.426H542.763L543.029 30.628L560.718 14.801L561.516 14.934L557.925 29.564L574.417 28.5L574.816 29.032L573.752 31.293H557.393L545.423 79.173C544.625 82.365 544.093 84.892 544.093 87.153C544.093 89.414 545.29 91.675 548.349 91.675C552.871 91.675 558.058 87.286 563.644 76.912L564.442 77.311C560.186 87.685 552.605 96.064 544.226 96.064ZM592.875 96.064C581.57 96.064 573.324 86.887 573.324 71.06C573.324 52.041 589.949 27.303 608.436 27.303C618.012 27.303 623.465 31.825 623.465 38.874C623.465 49.514 611.894 56.297 583.698 62.548C583.166 65.474 582.767 68.267 582.767 70.794C582.767 83.961 588.486 91.01 597.53 91.01C603.249 91.01 609.633 88.35 617.746 77.577L618.411 78.242C611.096 90.079 602.983 96.064 592.875 96.064ZM583.964 60.952C608.835 55.1 615.751 45.657 615.751 37.278C615.751 32.357 613.357 28.899 608.569 28.899C597.663 28.899 587.555 45.923 583.964 60.952ZM741.275 96.064C736.487 96.064 734.093 93.005 734.093 89.414C734.093 87.951 734.359 86.222 734.891 84.36L744.866 48.184C745.664 45.258 746.329 42.731 746.329 40.603C746.329 35.682 743.935 33.022 739.945 33.022C734.093 33.022 726.645 40.603 708.557 78.641L704.567 95H695.257L706.695 47.253C707.36 44.593 707.759 42.598 707.759 40.204C707.759 36.081 705.631 33.022 701.641 33.022C695.922 33.022 689.006 39.539 670.519 78.375L666.263 95H657.086L672.248 34.219L664.8 32.49L664.933 31.692L682.755 27.835L683.287 28.234L670.785 73.321H671.45C688.341 35.15 696.853 27.303 706.695 27.303C712.946 27.303 717.069 31.426 717.069 39.273C717.069 41.534 716.67 44.061 716.005 46.854L708.956 73.321H709.621C726.379 35.15 734.758 27.303 744.866 27.303C751.25 27.303 755.772 31.426 755.772 39.406C755.772 41.8 755.107 45.125 754.176 48.45L744.334 84.094C743.802 86.089 743.403 87.685 743.403 89.015C743.403 90.744 744.068 92.074 745.93 92.074C749.122 92.074 751.915 87.685 754.841 80.636L755.772 80.769C752.447 90.345 748.058 96.064 741.275 96.064ZM786.79 96.064C775.485 96.064 767.239 86.887 767.239 71.06C767.239 52.041 783.864 27.303 802.351 27.303C811.927 27.303 817.38 31.825 817.38 38.874C817.38 49.514 805.809 56.297 777.613 62.548C777.081 65.474 776.682 68.267 776.682 70.794C776.682 83.961 782.401 91.01 791.445 91.01C797.164 91.01 803.548 88.35 811.661 77.577L812.326 78.242C805.011 90.079 796.898 96.064 786.79 96.064ZM777.879 60.952C802.75 55.1 809.666 45.657 809.666 37.278C809.666 32.357 807.272 28.899 802.484 28.899C791.578 28.899 781.47 45.923 777.879 60.952ZM39.772 230.798C20.753 230.798 7.453 216.7 7.453 196.218C7.453 175.869 20.753 161.771 39.772 161.771C58.791 161.771 72.224 175.869 72.224 196.218C72.224 216.7 58.791 230.798 39.772 230.798ZM39.772 224.68C54.801 224.68 65.175 212.976 65.175 196.218C65.175 179.593 54.801 167.756 39.772 167.756C24.743 167.756 14.369 179.593 14.369 196.218C14.369 212.976 24.743 224.68 39.772 224.68ZM116.824 161.771C132.119 161.771 143.424 170.948 143.424 192.228V230H136.641V192.494C136.641 176.534 128.794 168.022 115.76 168.022C101.396 168.022 92.4847 179.194 92.4847 196.75V230H85.7017V162.569H91.5537L92.6177 176.933C96.4747 168.155 104.455 161.771 116.824 161.771ZM199.338 214.306V168.82H186.57V162.569H199.338V143.683H206.121V162.569H224.342V168.82H206.121V214.173C206.121 221.089 208.648 223.749 215.697 223.749H225.007V230H215.165C203.727 230 199.338 225.079 199.338 214.306ZM266.449 161.771C281.744 161.771 293.049 170.948 293.049 192.228V230H286.266V192.494C286.266 176.534 278.286 168.022 265.385 168.022C251.021 168.022 242.11 179.194 242.11 196.75V230H235.327V136.9H242.11V178.529C245.967 168.82 253.814 161.771 266.449 161.771ZM311.649 148.338C308.989 148.338 306.861 146.343 306.861 143.55C306.861 140.757 308.989 138.762 311.649 138.762C314.309 138.762 316.437 140.757 316.437 143.55C316.437 146.343 314.309 148.338 311.649 148.338ZM308.191 230V162.569H314.974V230H308.191ZM327.861 209.252H334.777C335.309 218.961 343.688 224.946 356.589 224.946C367.628 224.946 376.007 219.892 376.007 211.912C376.007 201.937 366.83 200.474 355.525 198.878C341.693 197.016 329.191 194.489 329.191 180.923C329.191 169.352 339.964 161.638 354.993 161.771C369.623 161.771 380.396 168.421 381.593 181.588H374.677C373.48 172.81 365.766 167.623 354.993 167.623C343.555 167.623 335.974 172.677 335.974 180.391C335.974 189.834 345.284 191.031 355.791 192.494C370.288 194.489 382.79 197.282 382.79 211.513C382.79 223.483 371.086 230.798 356.589 230.798C339.698 230.798 328.393 223.217 327.861 209.252Z" fill="#152023"/>
</svg>