<svg width="751" height="263" viewBox="0 0 751 263" fill="none" xmlns="http://www.w3.org/2000/svg">
<path d="M33.708 99H6.576V5.89999H33.708C63.234 5.89999 80.524 24.121 80.524 52.45C80.524 80.646 63.234 99 33.708 99ZM13.758 12.55V92.35H33.708C59.111 92.35 73.209 76.789 73.209 52.45C73.209 27.978 59.111 12.55 33.708 12.55H13.758ZM143.803 64.686V31.569H150.586V99H144.601L143.67 84.769C139.813 93.414 131.966 99.798 119.996 99.798C105.1 99.798 94.0609 90.488 94.0609 69.341V31.569H100.844V68.942C100.844 85.035 108.558 93.547 121.06 93.547C135.025 93.547 143.803 82.375 143.803 64.686ZM221.616 46.731V5.89999H228.399V99H222.547L221.483 83.572C217.227 93.015 208.449 99.798 195.814 99.798C177.327 99.798 164.027 86.498 164.027 65.218C164.027 44.869 177.327 30.771 195.814 30.771C208.449 30.771 217.493 37.155 221.616 46.731ZM196.346 93.68C211.375 93.68 221.749 81.976 221.749 65.351C221.749 48.593 211.375 36.756 196.346 36.756C181.317 36.756 170.943 48.593 170.943 65.218C170.943 81.976 181.317 93.68 196.346 93.68ZM274.146 99.798C254.994 99.798 241.827 85.966 241.827 64.819C241.827 44.869 254.462 30.771 272.949 30.771C291.037 30.771 303.406 42.475 304.071 62.558C304.071 63.356 303.938 64.42 303.938 65.351H248.876V66.548C249.142 82.242 258.585 93.68 273.614 93.68C284.653 93.68 293.564 87.163 296.224 76.656H303.14C300.214 90.222 288.909 99.798 274.146 99.798ZM249.408 59.632H296.756C295.692 44.869 286.249 36.756 273.082 36.756C260.713 36.756 250.472 45.933 249.408 59.632ZM315.465 89.69C320.253 89.69 323.711 94.611 323.711 100.729C323.711 109.507 317.992 115.625 308.815 116.024V112.034C315.598 111.768 318.79 106.581 318.79 101.527C318.79 100.33 318.524 99 317.593 98.069C316.928 99.133 315.598 99.665 314.268 99.665C311.741 99.665 309.613 98.069 309.613 94.877C309.613 91.951 311.874 89.69 315.465 89.69ZM385.041 99.399H380.386L376.263 37.953L368.948 36.224L369.081 35.559L384.509 31.835L385.041 32.234L388.499 90.621H389.031L410.71 56.307L408.981 33.83L417.493 31.835L418.025 32.367L421.483 91.02H422.015C433.586 75.459 443.029 60.962 446.088 51.918L444.625 33.431L453.669 31.835L454.201 32.234C454.866 48.46 445.024 63.755 417.626 99.399H413.237L411.375 60.164H410.843L385.041 99.399ZM503.432 100.064C498.511 100.064 496.117 97.005 496.117 93.414C496.117 91.951 496.516 90.222 497.048 88.36L507.023 52.317C507.821 49.391 508.353 46.864 508.353 44.603C508.353 39.682 505.693 37.022 501.437 37.022C495.452 37.022 488.137 43.539 469.517 83.04L465.394 99H456.217L478.96 7.09699L470.98 5.102L471.113 4.304L489.467 0.180996L489.999 0.579999L479.891 41.012L470.049 77.321H470.714C487.605 39.017 496.383 31.303 506.358 31.303C513.141 31.303 517.796 35.426 517.796 43.406C517.796 45.933 517.264 49.125 516.333 52.184L506.491 88.094C505.959 90.089 505.56 91.685 505.56 93.015C505.56 94.744 506.225 96.074 507.954 96.074C511.279 96.074 514.072 91.685 516.998 84.636L517.929 84.769C514.604 94.345 510.082 100.064 503.432 100.064ZM548.781 100.064C537.476 100.064 529.23 90.887 529.23 75.06C529.23 56.041 545.855 31.303 564.342 31.303C573.918 31.303 579.371 35.825 579.371 42.874C579.371 53.514 567.8 60.297 539.604 66.548C539.072 69.474 538.673 72.267 538.673 74.794C538.673 87.961 544.392 95.01 553.436 95.01C559.155 95.01 565.539 92.35 573.652 81.577L574.317 82.242C567.002 94.079 558.889 100.064 548.781 100.064ZM539.87 64.952C564.741 59.1 571.657 49.657 571.657 41.278C571.657 36.357 569.263 32.899 564.475 32.899C553.569 32.899 543.461 49.923 539.87 64.952ZM592.166 99H582.989L598.151 38.219L590.703 36.49L590.836 35.692L608.658 31.835L609.19 32.234L596.688 77.321H597.353C612.648 40.48 619.298 31.569 630.337 31.569H632.598L630.337 40.613L629.805 41.012H618.766C614.909 44.736 608.658 54.179 596.289 82.907L592.166 99ZM648.79 100.064C637.485 100.064 629.239 90.887 629.239 75.06C629.239 56.041 645.864 31.303 664.351 31.303C673.927 31.303 679.38 35.825 679.38 42.874C679.38 53.514 667.809 60.297 639.613 66.548C639.081 69.474 638.682 72.267 638.682 74.794C638.682 87.961 644.401 95.01 653.445 95.01C659.164 95.01 665.548 92.35 673.661 81.577L674.326 82.242C667.011 94.079 658.898 100.064 648.79 100.064ZM639.879 64.952C664.75 59.1 671.666 49.657 671.666 41.278C671.666 36.357 669.272 32.899 664.484 32.899C653.578 32.899 643.47 49.923 639.879 64.952ZM688.991 29.042L688.725 28.111C693.912 25.185 697.37 21.86 697.37 17.338C697.37 15.077 695.774 12.55 692.183 12.284C692.05 8.028 694.178 4.969 698.434 4.969C701.892 4.969 704.419 7.22999 704.419 11.619C704.419 18.801 698.035 25.717 688.991 29.042ZM718.441 100.064C709.929 100.064 702.481 97.271 697.826 93.946L702.082 77.72H703.013L705.54 94.345C708.466 97.138 713.786 98.335 718.574 98.335C726.953 98.335 734.135 92.749 734.135 84.503C734.135 77.587 729.081 73.597 722.298 68.543C716.047 63.755 709.397 58.967 709.397 50.854C709.397 38.485 720.702 31.303 732.273 31.303C739.455 31.303 746.637 33.83 750.893 36.889L746.77 52.982H745.972L743.312 36.49C739.987 34.096 736.529 33.032 732.273 33.032C724.293 33.032 717.51 38.219 717.51 46.997C717.51 54.046 722.298 57.371 729.081 62.425C735.465 67.08 742.248 72.533 742.248 80.38C742.248 92.616 730.81 100.064 718.441 100.064ZM84.913 235.064C80.125 235.064 77.731 232.005 77.731 228.414C77.731 226.951 77.997 225.222 78.529 223.36L88.504 187.184C89.302 184.258 89.967 181.731 89.967 179.603C89.967 174.682 87.573 172.022 83.583 172.022C77.731 172.022 70.283 179.603 52.195 217.641L48.205 234H38.895L50.333 186.253C50.998 183.593 51.397 181.598 51.397 179.204C51.397 175.081 49.269 172.022 45.279 172.022C39.56 172.022 32.644 178.539 14.157 217.375L9.901 234H0.724L15.886 173.219L8.438 171.49L8.571 170.692L26.393 166.835L26.925 167.234L14.423 212.321H15.088C31.979 174.15 40.491 166.303 50.333 166.303C56.584 166.303 60.707 170.426 60.707 178.273C60.707 180.534 60.308 183.061 59.643 185.854L52.594 212.321H53.259C70.017 174.15 78.396 166.303 88.504 166.303C94.888 166.303 99.41 170.426 99.41 178.406C99.41 180.8 98.745 184.125 97.814 187.45L87.972 223.094C87.44 225.089 87.041 226.685 87.041 228.015C87.041 229.744 87.706 231.074 89.568 231.074C92.76 231.074 95.553 226.685 98.479 219.636L99.41 219.769C96.085 229.345 91.696 235.064 84.913 235.064ZM104.363 262.196H94.2552L94.5212 260.866L123.249 234.266L117.796 172.953L110.481 171.224L110.614 170.559L126.042 166.835L126.574 167.234L130.564 224.956H131.096C145.726 207.4 153.706 195.563 156.366 186.918L155.036 168.431L163.947 166.835L164.479 167.234C164.479 184.657 154.371 200.883 124.845 234.532L104.363 262.196ZM236.076 235.33C213.333 235.33 202.028 218.971 202.028 198.09C202.028 166.702 224.771 139.57 253.233 139.57C264.006 139.57 273.183 143.161 279.168 148.348L278.902 167.899H277.971L275.311 160.052C271.454 148.215 266.134 141.698 253.1 141.698C228.761 141.698 212.003 170.027 212.003 197.292C212.003 215.38 220.781 230.675 240.199 230.675C249.243 230.675 258.952 227.084 267.464 218.838L268.129 219.902C258.287 230.143 247.647 235.33 236.076 235.33ZM319.213 235.33C299.263 235.33 284.899 218.306 284.899 197.425C284.899 165.106 308.307 139.57 335.439 139.57C355.389 139.57 369.753 156.594 369.753 177.475C369.753 209.927 346.345 235.33 319.213 235.33ZM319.612 233.202C342.621 233.202 359.911 203.144 359.911 173.352C359.911 157.924 352.729 141.698 335.04 141.698C312.164 141.698 294.874 171.357 294.874 201.149C294.874 216.71 301.79 233.202 319.612 233.202ZM399.104 234H370.11L370.243 233.069L376.76 232.005C379.686 231.473 380.484 230.542 381.149 227.882L401.365 147.018C402.03 144.358 401.498 143.427 398.838 142.895L392.853 141.831L393.119 140.9H421.98L421.847 141.831L415.33 142.895C412.404 143.427 411.606 144.358 410.941 147.018L390.725 227.882C390.06 230.675 390.592 231.473 393.252 232.005L399.237 233.069L399.104 234ZM444.263 139.57C459.691 139.57 469.799 151.141 469.799 164.175C469.799 183.194 454.238 193.036 432.958 194.898L428.968 209.129H427.904L430.564 187.051L431.362 186.519C449.716 184.923 465.277 176.677 465.277 159.653C465.277 154.2 463.149 148.348 457.297 144.491L434.554 148.88L433.889 148.481L436.017 140.501C439.076 139.836 441.071 139.57 444.263 139.57ZM424.978 234.931C421.653 234.931 418.86 232.404 418.86 228.813C418.86 225.355 421.653 222.828 424.978 222.828C428.303 222.828 431.096 225.355 431.096 228.813C431.096 232.404 428.303 234.931 424.978 234.931Z" fill="#152023"/>
</svg>
