<svg width="527" height="231" viewBox="0 0 527 231" fill="none" xmlns="http://www.w3.org/2000/svg">
<path d="M4.576 94V0.899994H59.904V7.55H11.758V44.391H51.924V51.041H11.758V94H4.576ZM124.642 87.749H127.169V94H123.179C115.199 94 111.874 90.542 112.14 82.562V80.168C108.017 88.547 99.9038 94.798 86.2048 94.798C71.8408 94.798 62.3978 87.483 62.3978 75.513C62.3978 62.878 71.7078 55.43 88.9978 55.43H111.874V49.578C111.874 38.406 104.692 31.756 92.0568 31.756C80.6188 31.756 73.4368 37.209 71.7078 45.455H64.9248C66.6538 33.219 76.8947 25.771 92.3228 25.771C109.214 25.771 118.657 34.416 118.657 49.844V81.232C118.657 86.419 120.652 87.749 124.642 87.749ZM111.874 66.735V61.282H88.4658C75.9638 61.282 69.3138 66.203 69.3138 75.114C69.3138 83.493 75.9638 88.946 86.7368 88.946C102.697 88.946 111.874 79.636 111.874 66.735ZM129.058 94L155.259 59.553L130.388 26.569H138.501L159.515 54.499L180.795 26.569H188.509L163.638 59.553L189.839 94H181.593L159.249 64.341L136.905 94H129.058ZM23.728 148.934C20.403 148.934 17.61 146.407 17.61 142.816C17.61 139.225 20.403 136.831 23.728 136.831C27.319 136.831 29.979 139.225 29.979 142.816C29.979 146.407 27.319 148.934 23.728 148.934ZM7.502 230.064C2.714 230.064 0.32 227.138 0.32 223.414C0.32 221.951 0.985 219.69 1.384 217.828L13.886 168.219L6.438 166.49L6.571 165.692L24.26 161.835L24.792 162.234L10.428 218.094C9.896 220.089 9.63 221.685 9.63 223.015C9.63 224.744 10.295 226.074 12.157 226.074C15.349 226.074 18.142 221.685 21.068 214.636L21.999 214.769C18.674 224.345 14.285 230.064 7.502 230.064ZM78.7962 230.064C73.8752 230.064 71.4812 227.005 71.4812 223.414C71.4812 221.951 71.8802 220.222 72.4122 218.36L82.3872 182.317C83.1852 179.391 83.7172 176.864 83.7172 174.603C83.7172 169.682 81.0572 167.022 76.8012 167.022C70.8162 167.022 63.6342 173.406 45.1472 212.242L40.8912 229H31.7142L46.8762 168.219L39.4282 166.49L39.5612 165.692L57.3832 161.835L57.9152 162.234L45.4132 207.321H46.0782C62.9692 169.017 71.7472 161.303 81.7222 161.303C88.5052 161.303 93.1602 165.426 93.1602 173.406C93.1602 175.933 92.6282 179.125 91.6972 182.184L81.8552 218.094C81.3232 220.089 80.9242 221.685 80.9242 223.015C80.9242 224.744 81.5892 226.074 83.3182 226.074C86.6432 226.074 89.4362 221.685 92.3622 214.636L93.2932 214.769C89.9682 224.345 85.4462 230.064 78.7962 230.064ZM115.497 230.064C109.246 230.064 106.054 226.473 106.054 221.685C106.054 219.424 106.187 218.094 107.384 213.705L119.354 165.426H114.034L114.3 164.628L131.989 148.801L132.787 148.934L129.196 163.564L145.688 162.5L146.087 163.032L145.023 165.293H128.664L116.694 213.173C115.896 216.365 115.364 218.892 115.364 221.153C115.364 223.414 116.561 225.675 119.62 225.675C124.142 225.675 129.329 221.286 134.915 210.912L135.713 211.311C131.457 221.685 123.876 230.064 115.497 230.064ZM166.008 230.064C153.24 230.064 144.861 219.158 144.861 204.794C144.861 184.977 159.757 161.303 179.973 161.303C192.874 161.303 201.253 172.209 201.253 186.573C201.253 206.523 186.49 230.064 166.008 230.064ZM166.008 228.468C181.569 228.468 191.943 199.075 191.943 182.583C191.943 169.682 187.554 162.899 180.106 162.899C165.742 162.899 154.171 192.425 154.171 208.784C154.171 221.685 158.56 228.468 166.008 228.468ZM217.903 230.064C213.115 230.064 210.721 227.005 210.721 223.414C210.721 221.951 210.987 220.222 211.519 218.36L231.868 137.097L224.021 135.102L224.154 134.304L242.242 130.181L242.774 130.58L220.962 218.094C220.43 220.089 220.031 221.685 220.031 223.015C220.031 224.744 220.696 226.074 222.558 226.074C225.75 226.074 228.543 221.685 231.469 214.636L232.4 214.769C229.208 224.345 224.686 230.064 217.903 230.064ZM262.467 230.064C251.162 230.064 242.916 220.887 242.916 205.06C242.916 186.041 259.541 161.303 278.028 161.303C287.604 161.303 293.057 165.825 293.057 172.874C293.057 183.514 281.486 190.297 253.29 196.548C252.758 199.474 252.359 202.267 252.359 204.794C252.359 217.961 258.078 225.01 267.122 225.01C272.841 225.01 279.225 222.35 287.338 211.577L288.003 212.242C280.688 224.079 272.575 230.064 262.467 230.064ZM253.556 194.952C278.427 189.1 285.343 179.657 285.343 171.278C285.343 166.357 282.949 162.899 278.161 162.899C267.255 162.899 257.147 179.923 253.556 194.952ZM305.852 229H296.675L311.837 168.219L304.389 166.49L304.522 165.692L322.344 161.835L322.876 162.234L310.374 207.321H311.039C326.334 170.48 332.984 161.569 344.023 161.569H346.284L344.023 170.613L343.491 171.012H332.452C328.595 174.736 322.344 184.179 309.975 212.907L305.852 229ZM357.822 230.064C348.645 230.064 343.192 221.951 343.192 207.853C343.192 185.11 359.551 161.303 379.634 161.303C387.082 161.303 394.397 165.559 397.855 170.746L404.372 161.702H405.17L390.806 218.094C390.407 220.089 390.008 221.685 390.008 223.015C390.008 224.744 390.673 226.074 392.535 226.074C395.727 226.074 398.52 221.685 401.446 214.636L402.377 214.769C399.052 224.345 394.663 230.064 387.88 230.064C382.959 230.064 380.698 227.005 380.698 223.414C380.698 221.951 380.964 220.222 381.496 218.227L389.609 188.834H388.944C374.979 218.493 368.994 230.064 357.822 230.064ZM361.546 224.744C368.063 224.744 374.181 215.7 390.673 181.785L392.668 177.529C392.003 170.214 387.348 162.899 379.634 162.899C365.137 162.899 352.768 187.637 352.768 207.188C352.768 218.227 356.226 224.744 361.546 224.744ZM459.223 230.064C454.302 230.064 451.908 227.005 451.908 223.414C451.908 221.951 452.307 220.222 452.839 218.36L462.814 182.317C463.612 179.391 464.144 176.864 464.144 174.603C464.144 169.682 461.484 167.022 457.228 167.022C451.243 167.022 444.061 173.406 425.574 212.242L421.318 229H412.141L427.303 168.219L419.855 166.49L419.988 165.692L437.81 161.835L438.342 162.234L425.84 207.321H426.505C443.396 169.017 452.174 161.303 462.149 161.303C468.932 161.303 473.587 165.426 473.587 173.406C473.587 175.933 473.055 179.125 472.124 182.184L462.282 218.094C461.75 220.089 461.351 221.685 461.351 223.015C461.351 224.744 462.016 226.074 463.745 226.074C467.07 226.074 469.863 221.685 472.789 214.636L473.72 214.769C470.395 224.345 465.873 230.064 459.223 230.064ZM495.924 230.064C489.673 230.064 486.481 226.473 486.481 221.685C486.481 219.424 486.614 218.094 487.811 213.705L499.781 165.426H494.461L494.727 164.628L512.416 148.801L513.214 148.934L509.623 163.564L526.115 162.5L526.514 163.032L525.45 165.293H509.091L497.121 213.173C496.323 216.365 495.791 218.892 495.791 221.153C495.791 223.414 496.988 225.675 500.047 225.675C504.569 225.675 509.756 221.286 515.342 210.912L516.14 211.311C511.884 221.685 504.303 230.064 495.924 230.064Z" fill="#152023"/>
</svg>
