<svg width="683" height="279" viewBox="0 0 683 279" fill="none" xmlns="http://www.w3.org/2000/svg">
<path d="M8.576 94V0.899994H63.904V7.55H15.758V44.391H55.924V51.041H15.758V94H8.576ZM98.4133 26.569H102.004V33.086H97.0833C81.2563 33.086 77.6653 46.12 77.6653 59.819V94H70.8823V26.569H76.7343L77.7983 40.002C80.5913 32.554 85.9113 26.569 98.4133 26.569ZM115.513 12.338C112.853 12.338 110.725 10.343 110.725 7.55C110.725 4.757 112.853 2.76199 115.513 2.76199C118.173 2.76199 120.301 4.757 120.301 7.55C120.301 10.343 118.173 12.338 115.513 12.338ZM112.055 94V26.569H118.838V94H112.055ZM164.577 94.798C145.425 94.798 132.258 80.966 132.258 59.819C132.258 39.869 144.893 25.771 163.38 25.771C181.468 25.771 193.837 37.475 194.502 57.558C194.502 58.356 194.369 59.42 194.369 60.351H139.307V61.548C139.573 77.242 149.016 88.68 164.045 88.68C175.084 88.68 183.995 82.163 186.655 71.656H193.571C190.645 85.222 179.34 94.798 164.577 94.798ZM139.839 54.632H187.187C186.123 39.869 176.68 31.756 163.513 31.756C151.144 31.756 140.903 40.933 139.839 54.632ZM239.031 25.771C254.326 25.771 265.631 34.948 265.631 56.228V94H258.848V56.494C258.848 40.534 251.001 32.022 237.967 32.022C223.603 32.022 214.692 43.194 214.692 60.75V94H207.909V26.569H213.761L214.825 40.933C218.682 32.155 226.662 25.771 239.031 25.771ZM334.666 41.731V0.899994H341.449V94H335.597L334.533 78.572C330.277 88.015 321.499 94.798 308.864 94.798C290.377 94.798 277.077 81.498 277.077 60.218C277.077 39.869 290.377 25.771 308.864 25.771C321.499 25.771 330.543 32.155 334.666 41.731ZM309.396 88.68C324.425 88.68 334.799 76.976 334.799 60.351C334.799 43.593 324.425 31.756 309.396 31.756C294.367 31.756 283.993 43.593 283.993 60.218C283.993 76.976 294.367 88.68 309.396 88.68ZM354.345 73.252H361.261C361.793 82.961 370.172 88.946 383.073 88.946C394.112 88.946 402.491 83.892 402.491 75.912C402.491 65.937 393.314 64.474 382.009 62.878C368.177 61.016 355.675 58.489 355.675 44.923C355.675 33.352 366.448 25.638 381.477 25.771C396.107 25.771 406.88 32.421 408.077 45.588H401.161C399.964 36.81 392.25 31.623 381.477 31.623C370.039 31.623 362.458 36.677 362.458 44.391C362.458 53.834 371.768 55.031 382.275 56.494C396.772 58.489 409.274 61.282 409.274 75.513C409.274 87.483 397.57 94.798 383.073 94.798C366.182 94.798 354.877 87.217 354.345 73.252ZM474.422 94L451.546 26.569H458.728L478.412 85.887L498.761 26.569H505.012L524.297 85.887L545.045 26.569H551.961L528.021 94H520.706L501.687 37.342L481.737 94H474.422ZM564.908 12.338C562.248 12.338 560.12 10.343 560.12 7.55C560.12 4.757 562.248 2.76199 564.908 2.76199C567.568 2.76199 569.696 4.757 569.696 7.55C569.696 10.343 567.568 12.338 564.908 12.338ZM561.45 94V26.569H568.233V94H561.45ZM589.233 78.306V32.82H576.465V26.569H589.233V7.68299H596.016V26.569H614.237V32.82H596.016V78.173C596.016 85.089 598.543 87.749 605.592 87.749H614.902V94H605.06C593.622 94 589.233 89.079 589.233 78.306ZM656.344 25.771C671.639 25.771 682.944 34.948 682.944 56.228V94H676.161V56.494C676.161 40.534 668.181 32.022 655.28 32.022C640.916 32.022 632.005 43.194 632.005 60.75V94H625.222V0.899994H632.005V42.529C635.862 32.82 643.709 25.771 656.344 25.771ZM27.728 230.064C17.354 230.064 11.502 224.744 5.517 216.232L25.201 137.097L17.221 135.102L17.354 134.304L35.708 130.181L36.24 130.58L26.132 171.012L17.753 202.666H18.418C32.383 173.007 38.368 161.303 49.407 161.303C58.717 161.303 64.17 169.549 64.17 183.647C64.17 206.39 47.811 230.064 27.728 230.064ZM27.728 228.468C42.225 228.468 54.594 203.863 54.594 184.179C54.594 173.14 51.136 166.623 45.816 166.623C38.767 166.623 31.984 176.731 16.29 210.247L14.561 214.237C15.492 221.286 20.147 228.468 27.728 228.468ZM92.684 230.064C81.379 230.064 73.133 220.887 73.133 205.06C73.133 186.041 89.758 161.303 108.245 161.303C117.821 161.303 123.274 165.825 123.274 172.874C123.274 183.514 111.703 190.297 83.507 196.548C82.975 199.474 82.576 202.267 82.576 204.794C82.576 217.961 88.295 225.01 97.339 225.01C103.058 225.01 109.442 222.35 117.555 211.577L118.22 212.242C110.905 224.079 102.792 230.064 92.684 230.064ZM83.773 194.952C108.644 189.1 115.56 179.657 115.56 171.278C115.56 166.357 113.166 162.899 108.378 162.899C97.472 162.899 87.364 179.923 83.773 194.952ZM173.974 230.064C169.053 230.064 166.659 227.005 166.659 223.414C166.659 221.951 167.058 220.222 167.59 218.36L177.565 182.317C178.363 179.391 178.895 176.864 178.895 174.603C178.895 169.682 176.235 167.022 171.979 167.022C165.994 167.022 158.812 173.406 140.325 212.242L136.069 229H126.892L142.054 168.219L134.606 166.49L134.739 165.692L152.561 161.835L153.093 162.234L140.591 207.321H141.256C158.147 169.017 166.925 161.303 176.9 161.303C183.683 161.303 188.338 165.426 188.338 173.406C188.338 175.933 187.806 179.125 186.875 182.184L177.033 218.094C176.501 220.089 176.102 221.685 176.102 223.015C176.102 224.744 176.767 226.074 178.496 226.074C181.821 226.074 184.614 221.685 187.54 214.636L188.471 214.769C185.146 224.345 180.624 230.064 173.974 230.064ZM219.32 230.064C208.015 230.064 199.769 220.887 199.769 205.06C199.769 186.041 216.394 161.303 234.881 161.303C244.457 161.303 249.91 165.825 249.91 172.874C249.91 183.514 238.339 190.297 210.143 196.548C209.611 199.474 209.212 202.267 209.212 204.794C209.212 217.961 214.931 225.01 223.975 225.01C229.694 225.01 236.078 222.35 244.191 211.577L244.856 212.242C237.541 224.079 229.428 230.064 219.32 230.064ZM210.409 194.952C235.28 189.1 242.196 179.657 242.196 171.278C242.196 166.357 239.802 162.899 235.014 162.899C224.108 162.899 214 179.923 210.409 194.952ZM239.034 258.26C236.906 258.26 234.512 257.861 231.985 257.462L233.448 250.679L234.113 250.28L247.413 254.536L247.945 254.403L269.358 166.091H260.979L261.112 165.426L270.422 162.367L270.821 156.249C271.619 143.215 279.2 130.447 295.692 130.447C297.953 130.447 299.948 130.713 301.943 131.112L300.081 138.959L299.283 139.092L284.387 134.836C278.668 139.358 276.673 146.407 278.402 163.83L305.401 162.766L313.248 161.835L313.78 162.234L299.549 218.094C299.017 220.089 298.618 221.685 298.618 223.015C298.618 224.744 299.283 226.074 301.145 226.074C304.337 226.074 307.13 221.685 310.056 214.636L310.987 214.769C307.662 224.345 303.273 230.064 296.49 230.064C291.702 230.064 289.308 227.138 289.308 223.414C289.308 221.951 289.84 219.69 290.372 217.828L303.406 165.958L278.402 166.357L260.846 236.448C257.388 251.078 249.94 258.26 239.034 258.26ZM312.45 149.865C309.258 149.865 306.598 147.471 306.598 143.88C306.598 140.422 309.258 138.028 312.45 138.028C315.908 138.028 318.701 140.422 318.701 143.88C318.701 147.471 315.908 149.865 312.45 149.865ZM332.245 230.064C325.994 230.064 322.802 226.473 322.802 221.685C322.802 219.424 322.935 218.094 324.132 213.705L336.102 165.426H330.782L331.048 164.628L348.737 148.801L349.535 148.934L345.944 163.564L362.436 162.5L362.835 163.032L361.771 165.293H345.412L333.442 213.173C332.644 216.365 332.112 218.892 332.112 221.153C332.112 223.414 333.309 225.675 336.368 225.675C340.89 225.675 346.077 221.286 351.663 210.912L352.461 211.311C348.205 221.685 340.624 230.064 332.245 230.064ZM377.81 230.064C369.298 230.064 361.85 227.271 357.195 223.946L361.451 207.72H362.382L364.909 224.345C367.835 227.138 373.155 228.335 377.943 228.335C386.322 228.335 393.504 222.749 393.504 214.503C393.504 207.587 388.45 203.597 381.667 198.543C375.416 193.755 368.766 188.967 368.766 180.854C368.766 168.485 380.071 161.303 391.642 161.303C398.824 161.303 406.006 163.83 410.262 166.889L406.139 182.982H405.341L402.681 166.49C399.356 164.096 395.898 163.032 391.642 163.032C383.662 163.032 376.879 168.219 376.879 176.997C376.879 184.046 381.667 187.371 388.45 192.425C394.834 197.08 401.617 202.533 401.617 210.38C401.617 222.616 390.179 230.064 377.81 230.064Z" fill="white"/>
<path d="M6.675 277.25H3.75C1.225 273.9 0.125 270.425 0.125 266.5C0.125 262.675 1.2 259.125 3.75 255.75H6.675C3.875 259.5 2.8 262.625 2.8 266.5C2.8 270.4 3.85 273.525 6.675 277.25ZM14.4078 274.15C10.3828 274.15 7.85781 271.55 7.85781 267.625C7.85781 263.675 10.3828 261.05 14.1578 261.05C17.8578 261.05 20.3328 263.4 20.4078 267.15C20.4078 267.475 20.3828 267.825 20.3328 268.175H10.6828V268.35C10.7578 270.525 12.1328 271.95 14.2578 271.95C15.9078 271.95 17.1078 271.125 17.4828 269.7H20.1828C19.7328 272.225 17.5828 274.15 14.4078 274.15ZM10.7828 266.2H17.6078C17.3828 264.3 16.0578 263.225 14.1828 263.225C12.4578 263.225 10.9828 264.375 10.7828 266.2ZM37.3156 261.05C39.9656 261.05 42.1156 262.575 42.1156 266.625V274H39.4156V266.8C39.4156 264.55 38.4906 263.375 36.7406 263.375C34.8906 263.375 33.7156 264.775 33.7156 267.075V274H30.9906V266.8C30.9906 264.55 30.0656 263.375 28.2906 263.375C26.4406 263.375 25.2906 264.875 25.2906 267.15V274H22.5906V261.2H24.9406L25.2406 262.875C25.9656 261.925 27.0656 261.075 28.9906 261.05C30.6656 261.05 32.1656 261.725 32.9406 263.375C33.7656 261.975 35.2156 261.05 37.3156 261.05ZM51.4133 261.05C54.9133 261.05 57.4633 263.5 57.4633 267.6C57.4633 271.55 54.9133 274.15 51.4133 274.15C49.4383 274.15 48.0633 273.35 47.2633 272.2V279H44.5633V261.2H46.9133L47.2383 263.1C48.0883 261.975 49.4133 261.05 51.4133 261.05ZM50.9633 271.875C53.2133 271.875 54.7133 270.1 54.7133 267.6C54.7133 265.075 53.2133 263.35 50.9633 263.35C48.7133 263.35 47.2383 265.075 47.2383 267.55C47.2383 270.1 48.7133 271.875 50.9633 271.875ZM59.6268 274V256.5H62.3268V274H59.6268ZM71.0234 274.15C67.1234 274.15 64.4984 271.525 64.4984 267.6C64.4984 263.7 67.1234 261.05 71.0234 261.05C74.9234 261.05 77.5484 263.7 77.5484 267.6C77.5484 271.525 74.9234 274.15 71.0234 274.15ZM71.0234 271.85C73.2984 271.85 74.7984 270.075 74.7984 267.6C74.7984 265.125 73.2984 263.35 71.0234 263.35C68.7484 263.35 67.2734 265.125 67.2734 267.6C67.2734 270.075 68.7484 271.85 71.0234 271.85ZM82.8336 274.075L77.8586 261.2H80.7336L84.3086 270.925L87.7836 261.2H90.6586L84.8586 276C84.0586 278.075 83.5086 279 81.6336 279H78.7336V276.625H80.6336C81.6836 276.625 81.9336 276.375 82.3336 275.325L82.8336 274.075ZM97.5133 274.15C93.4883 274.15 90.9633 271.55 90.9633 267.625C90.9633 263.675 93.4883 261.05 97.2633 261.05C100.963 261.05 103.438 263.4 103.513 267.15C103.513 267.475 103.488 267.825 103.438 268.175H93.7883V268.35C93.8633 270.525 95.2383 271.95 97.3633 271.95C99.0133 271.95 100.213 271.125 100.588 269.7H103.288C102.838 272.225 100.688 274.15 97.5133 274.15ZM93.8883 266.2H100.713C100.488 264.3 99.1633 263.225 97.2883 263.225C95.5633 263.225 94.0883 264.375 93.8883 266.2ZM111.771 274.15C107.746 274.15 105.221 271.55 105.221 267.625C105.221 263.675 107.746 261.05 111.521 261.05C115.221 261.05 117.696 263.4 117.771 267.15C117.771 267.475 117.746 267.825 117.696 268.175H108.046V268.35C108.121 270.525 109.496 271.95 111.621 271.95C113.271 271.95 114.471 271.125 114.846 269.7H117.546C117.096 272.225 114.946 274.15 111.771 274.15ZM108.146 266.2H114.971C114.746 264.3 113.421 263.225 111.546 263.225C109.821 263.225 108.346 264.375 108.146 266.2ZM133.2 261.05C136.7 261.05 139.25 263.475 139.25 267.6C139.25 271.525 136.7 274.15 133.2 274.15C131.2 274.15 129.825 273.3 129.025 272.15L128.7 274H126.35V256.5H129.05V263.1C129.9 261.95 131.225 261.05 133.2 261.05ZM132.75 271.875C135 271.875 136.5 270.125 136.5 267.6C136.5 265.1 135 263.35 132.75 263.35C130.5 263.35 129.025 265.1 129.025 267.575C129.025 270.1 130.5 271.875 132.75 271.875ZM147.489 274.15C143.464 274.15 140.939 271.55 140.939 267.625C140.939 263.675 143.464 261.05 147.239 261.05C150.939 261.05 153.414 263.4 153.489 267.15C153.489 267.475 153.464 267.825 153.414 268.175H143.764V268.35C143.839 270.525 145.214 271.95 147.339 271.95C148.989 271.95 150.189 271.125 150.564 269.7H153.264C152.814 272.225 150.664 274.15 147.489 274.15ZM143.864 266.2H150.689C150.464 264.3 149.139 263.225 147.264 263.225C145.539 263.225 144.064 264.375 143.864 266.2ZM162.422 261.05C165.247 261.05 167.572 262.6 167.572 266.875V274H164.847V267.1C164.847 264.675 163.822 263.375 161.797 263.375C159.647 263.375 158.372 264.95 158.372 267.55V274H155.672V261.2H158.022L158.322 262.875C159.122 261.875 160.347 261.05 162.422 261.05ZM176.004 274.15C171.979 274.15 169.454 271.55 169.454 267.625C169.454 263.675 171.979 261.05 175.754 261.05C179.454 261.05 181.929 263.4 182.004 267.15C182.004 267.475 181.979 267.825 181.929 268.175H172.279V268.35C172.354 270.525 173.729 271.95 175.854 271.95C177.504 271.95 178.704 271.125 179.079 269.7H181.779C181.329 272.225 179.179 274.15 176.004 274.15ZM172.379 266.2H179.204C178.979 264.3 177.654 263.225 175.779 263.225C174.054 263.225 172.579 264.375 172.379 266.2ZM193.815 259.4C192.89 259.4 192.165 258.725 192.165 257.775C192.165 256.825 192.89 256.15 193.815 256.15C194.74 256.15 195.465 256.825 195.465 257.775C195.465 258.725 194.74 259.4 193.815 259.4ZM187.74 261.2H195.165V274H192.44V263.575H187.74V274H185.015V263.575H182.79V261.2H185.015V259.925C185.015 257.675 186.115 256.5 188.59 256.5H190.865V258.875H188.965C188.09 258.875 187.74 259.25 187.74 260.125V261.2ZM198.711 270.525V263.575H196.486V261.2H198.711V257.625H201.436V261.2H204.561V263.575H201.436V270.25C201.436 271.25 201.786 271.625 202.811 271.625H204.711V274H202.211C199.761 274 198.711 272.85 198.711 270.525ZM205.879 269.775H208.529C208.629 271.1 209.779 272.05 211.729 272.05C213.404 272.05 214.504 271.4 214.504 270.375C214.504 269 213.329 268.9 211.354 268.65C208.429 268.3 206.129 267.675 206.129 265.025C206.129 262.6 208.304 261.025 211.379 261.05C214.529 261.05 216.754 262.5 216.929 265.125H214.279C214.129 263.95 213.029 263.125 211.429 263.125C209.829 263.125 208.779 263.775 208.779 264.8C208.779 266 210.004 266.15 211.854 266.35C214.779 266.7 217.154 267.3 217.154 270.15C217.154 272.6 214.829 274.15 211.729 274.15C208.304 274.15 205.954 272.55 205.879 269.775ZM218.246 255.75H221.146C223.671 259.1 224.796 262.575 224.796 266.5C224.796 270.325 223.696 273.875 221.146 277.25H218.246C221.046 273.5 222.121 270.375 222.121 266.5C222.121 262.6 221.071 259.475 218.246 255.75Z" fill="white"/>
</svg>
