<svg width="575" height="231" viewBox="0 0 575 231" fill="none" xmlns="http://www.w3.org/2000/svg">
<path d="M4.576 94V0.899994H59.904V7.55H11.758V44.391H51.924V51.041H11.758V94H4.576ZM94.4133 26.569H98.0043V33.086H93.0833C77.2563 33.086 73.6653 46.12 73.6653 59.819V94H66.8823V26.569H72.7343L73.7983 40.002C76.5913 32.554 81.9113 26.569 94.4133 26.569ZM133.042 94.798C114.023 94.798 100.723 80.7 100.723 60.218C100.723 39.869 114.023 25.771 133.042 25.771C152.061 25.771 165.494 39.869 165.494 60.218C165.494 80.7 152.061 94.798 133.042 94.798ZM133.042 88.68C148.071 88.68 158.445 76.976 158.445 60.218C158.445 43.593 148.071 31.756 133.042 31.756C118.013 31.756 107.639 43.593 107.639 60.218C107.639 76.976 118.013 88.68 133.042 88.68ZM254.249 25.771C268.347 25.771 279.12 34.549 279.12 54.898V94H272.204V55.164C272.204 39.869 265.155 32.022 253.451 32.022C240.816 32.022 232.836 41.864 232.437 57.292V94H225.654V55.829C225.654 40.268 218.339 32.022 206.635 32.022C193.734 32.022 185.754 43.194 185.754 59.686V94H178.971V26.569H184.823L185.887 40.933C189.345 32.554 196.261 25.771 207.832 25.771C218.472 25.771 226.851 31.49 230.043 42.662C233.9 32.687 241.88 25.771 254.249 25.771ZM331.754 94H324.306L360.349 0.899994H368.728L404.638 94H396.924L385.752 65.538H342.926L331.754 94ZM364.339 8.87999L345.054 58.888H383.624L364.339 8.87999ZM416.434 94V0.899994H448.221C466.974 0.899994 477.348 10.077 477.348 24.84C477.348 36.145 470.964 43.194 460.59 45.854C472.959 47.716 481.604 54.765 481.604 68.065C481.604 84.158 470.432 94 448.753 94H416.434ZM448.487 7.417H423.616V43.194H448.487C462.319 43.194 470.166 36.411 470.166 25.239C470.166 14.2 462.452 7.417 448.487 7.417ZM448.753 49.711H423.616V87.483H448.753C465.511 87.483 474.156 80.168 474.156 68.464C474.156 56.228 464.846 49.711 448.753 49.711ZM536.46 94.798C510.392 94.798 493.767 75.646 493.767 47.45C493.767 19.52 510.791 0.101996 536.992 0.101996C556.543 0.101996 570.641 10.875 574.764 29.495H567.183C563.06 14.865 552.154 6.752 536.593 6.752C515.047 6.752 501.215 23.643 501.215 47.45C501.215 71.257 514.781 88.148 536.327 88.148C552.154 88.148 562.927 80.168 566.917 65.272H574.498C570.508 84.025 556.41 94.798 536.46 94.798ZM10.162 230.064C3.911 230.064 0.719 226.473 0.719 221.685C0.719 219.424 0.852 218.094 2.049 213.705L14.019 165.426H8.699L8.965 164.628L26.654 148.801L27.452 148.934L23.861 163.564L40.353 162.5L40.752 163.032L39.688 165.293H23.329L11.359 213.173C10.561 216.365 10.029 218.892 10.029 221.153C10.029 223.414 11.226 225.675 14.285 225.675C18.807 225.675 23.994 221.286 29.58 210.912L30.378 211.311C26.122 221.685 18.541 230.064 10.162 230.064ZM60.6729 230.064C47.9049 230.064 39.5259 219.158 39.5259 204.794C39.5259 184.977 54.4219 161.303 74.6379 161.303C87.5389 161.303 95.9179 172.209 95.9179 186.573C95.9179 206.523 81.1549 230.064 60.6729 230.064ZM60.6729 228.468C76.2339 228.468 86.6079 199.075 86.6079 182.583C86.6079 169.682 82.2189 162.899 74.7709 162.899C60.4069 162.899 48.8359 192.425 48.8359 208.784C48.8359 221.685 53.2249 228.468 60.6729 228.468ZM157.6 229H128.606L128.739 228.069L135.256 227.005C138.182 226.473 138.98 225.542 139.645 222.882L159.861 142.018C160.526 139.358 159.994 138.427 157.334 137.895L151.349 136.831L151.615 135.9H180.476L180.343 136.831L173.826 137.895C170.9 138.427 170.102 139.358 169.437 142.018L149.221 222.882C148.556 225.675 149.088 226.473 151.748 227.005L157.733 228.069L157.6 229ZM202.76 229H169.909L170.042 228.069L176.559 227.005C179.485 226.473 180.283 225.542 180.948 222.882L201.164 142.018C201.829 139.358 201.297 138.427 198.637 137.895L192.652 136.831L192.918 135.9H221.38C243.724 135.9 255.428 145.875 255.428 159.308C255.428 179.923 236.808 188.435 212.735 188.435H204.09L204.622 186.307H211.937C232.818 186.174 245.586 177.13 245.586 159.441C245.586 147.87 238.271 138.161 220.715 138.161H211.671L190.657 222.749C189.859 225.542 190.391 226.34 193.317 226.872L202.893 228.069L202.76 229ZM298.121 230.33C278.171 230.33 263.807 213.306 263.807 192.425C263.807 160.106 287.215 134.57 314.347 134.57C334.297 134.57 348.661 151.594 348.661 172.475C348.661 204.927 325.253 230.33 298.121 230.33ZM298.52 228.202C321.529 228.202 338.819 198.144 338.819 168.352C338.819 152.924 331.637 136.698 313.948 136.698C291.072 136.698 273.782 166.357 273.782 196.149C273.782 211.71 280.698 228.202 298.52 228.202Z" fill="#152023"/>
</svg>
