<svg width="297" height="231" viewBox="0 0 297 231" fill="none" xmlns="http://www.w3.org/2000/svg">
<path d="M46.018 96.33C21.147 96.33 8.645 79.572 8.645 58.558C8.645 27.436 32.186 0.569995 62.244 0.569995C73.682 0.569995 83.923 3.89499 90.174 9.34799L89.908 28.766H88.977L86.317 21.052C82.327 9.21499 76.342 2.698 61.978 2.698C36.575 2.698 18.487 30.229 18.487 57.76C18.487 78.641 27.398 94.069 46.949 94.069C53.466 94.069 59.983 91.808 67.165 86.887L74.613 57.095C75.145 54.967 74.746 53.371 72.086 52.972L64.505 51.775L64.771 50.844H93.499L93.366 51.775L88.046 52.839C85.785 53.371 84.854 54.169 84.189 56.962L74.746 95H73.682L69.958 88.483C61.978 93.537 53.865 96.33 46.018 96.33ZM109.014 95H99.8373L114.999 34.219L107.551 32.49L107.684 31.692L125.506 27.835L126.038 28.234L113.536 73.321H114.201C129.496 36.48 136.146 27.569 147.185 27.569H149.446L147.185 36.613L146.653 37.012H135.614C131.757 40.736 125.506 50.179 113.137 78.907L109.014 95ZM167.501 96.064C154.733 96.064 146.354 85.158 146.354 70.794C146.354 50.977 161.25 27.303 181.466 27.303C194.367 27.303 202.746 38.209 202.746 52.573C202.746 72.523 187.983 96.064 167.501 96.064ZM167.501 94.468C183.062 94.468 193.436 65.075 193.436 48.583C193.436 35.682 189.047 28.899 181.599 28.899C167.235 28.899 155.664 58.425 155.664 74.784C155.664 87.685 160.053 94.468 167.501 94.468ZM226.337 95.399H221.682L217.559 33.953L210.244 32.224L210.377 31.559L225.805 27.835L226.337 28.234L229.795 86.621H230.327L252.006 52.307L250.277 29.83L258.789 27.835L259.321 28.367L262.779 87.02H263.311C274.882 71.459 284.325 56.962 287.384 47.918L285.921 29.431L294.965 27.835L295.497 28.234C296.162 44.46 286.32 59.755 258.922 95.399H254.533L252.671 56.164H252.139L226.337 95.399ZM0.266 168.82V162.569H13.034V152.594C13.034 141.821 17.556 136.9 28.861 136.9H40.166V143.151H29.127C22.344 143.151 19.817 145.811 19.817 152.461V162.569H40.033V168.82H19.817V230H13.034V168.82H0.266ZM74.5288 230.798C55.5098 230.798 42.2098 216.7 42.2098 196.218C42.2098 175.869 55.5098 161.771 74.5288 161.771C93.5478 161.771 106.981 175.869 106.981 196.218C106.981 216.7 93.5478 230.798 74.5288 230.798ZM74.5288 224.68C89.5578 224.68 99.9318 212.976 99.9318 196.218C99.9318 179.593 89.5578 167.756 74.5288 167.756C59.4998 167.756 49.1258 179.593 49.1258 196.218C49.1258 212.976 59.4998 224.68 74.5288 224.68ZM147.99 162.569H151.581V169.086H146.66C130.833 169.086 127.242 182.12 127.242 195.819V230H120.459V162.569H126.311L127.375 176.002C130.168 168.554 135.488 162.569 147.99 162.569ZM168.504 214.306V168.82H155.736V162.569H168.504V143.683H175.287V162.569H193.508V168.82H175.287V214.173C175.287 221.089 177.814 223.749 184.863 223.749H194.173V230H184.331C172.893 230 168.504 225.079 168.504 214.306ZM235.615 161.771C250.91 161.771 262.215 170.948 262.215 192.228V230H255.432V192.494C255.432 176.534 247.452 168.022 234.551 168.022C220.187 168.022 211.276 179.194 211.276 196.75V230H204.493V136.9H211.276V178.529C215.133 168.82 222.98 161.771 235.615 161.771Z" fill="#152023"/>
</svg>
