<svg xmlns="http://www.w3.org/2000/svg" width="32" height="32" shape-rendering="geometricPrecision" text-rendering="geometricPrecision" image-rendering="optimizeQuality" fill-rule="evenodd" clip-rule="evenodd" viewBox="0 0 320 320">
  <path d="M92.358 1.376h135.291C278.454 1.376 320 42.408 320 92.534v134.925c0 50.139-41.546 91.159-92.352 91.159H92.358C41.552 318.618 0 277.598 0 227.459V92.534C0 42.408 41.551 1.376 92.358 1.376zm66.781 72.969c49.37 0 89.434 40.063 89.434 89.434 0 49.377-40.063 89.434-89.434 89.434-49.383 0-89.44-40.057-89.44-89.434 0-49.37 40.057-89.434 89.44-89.434zm0 30.207c32.694 0 59.227 26.528 59.227 59.227s-26.534 59.233-59.227 59.233c-32.705 0-59.233-26.534-59.233-59.233s26.528-59.227 59.233-59.227zm86.522-42.602c8.02 0 14.522 6.502 14.522 14.516 0 8.02-6.502 14.522-14.522 14.522-8.014 0-14.516-6.502-14.516-14.522 0-8.014 6.502-14.516 14.516-14.516zM103.412 27.29h113.193c42.502 0 77.263 34.589 77.263 76.856v113.759c0 42.266-34.76 76.85-77.263 76.85H103.412c-42.502 0-77.269-34.584-77.269-76.85v-113.76c0-42.266 34.766-76.855 77.269-76.855z" fill="#fff"/>
</svg>
