<svg xmlns="http://www.w3.org/2000/svg" width="32" height="32" shape-rendering="geometricPrecision" text-rendering="geometricPrecision" image-rendering="optimizeQuality" fill-rule="evenodd" clip-rule="evenodd" viewBox="0 0 320 320">
  <path d="M290 0H30C13.5 0 0 13.5 0 30v260c0 16.5 13.5 30 30 30h260c16.5 0 30-13.5 30-30V30c0-16.5-13.5-30-30-30zM119.996 260H80.004V119.996h39.992V260zM99.994 99.994c-11.055 0-19.997-8.941-19.997-19.997 0-11.061 8.941-20.002 19.997-20.002 11.061 0 20.002 8.941 20.002 20.002 0 11.055-8.941 19.997-20.002 19.997zM260 260h-39.993v-79.998c0-11.061-8.947-20.002-20.002-20.002-11.061 0-20.002 8.941-20.002 20.002v79.997h-40.005V119.996h40.005v24.821c8.238-11.327 20.876-24.821 34.996-24.821 24.88 0 45 22.382 45 50.002v90.001z" fill="#fff"/>
</svg>
