<?xml version="1.0" encoding="UTF-8"?><svg id="Layer_1" xmlns="http://www.w3.org/2000/svg" viewBox="0 0 1080 200"><defs><style>.cls-1{fill:#152023;}</style></defs><polygon class="cls-1" points="7.18 47.75 26.44 47.75 104.67 122.99 104.67 47.75 125.87 47.75 125.87 152.25 106.46 152.25 28.38 77.01 28.38 152.25 7.18 152.25 7.18 47.75"/><polygon class="cls-1" points="145.26 47.75 246.03 47.75 246.03 65.51 166.46 65.51 166.46 91.12 246.03 91.12 246.03 108.88 166.46 108.88 166.46 134.34 246.03 134.34 246.03 152.25 145.26 152.25 145.26 47.75"/><polygon class="cls-1" points="258.29 47.75 281.28 47.75 309.05 124.78 335.32 47.75 356.08 47.75 382.2 124.78 410.12 47.75 433.11 47.75 394.44 152.25 370.56 152.25 345.78 78.65 320.7 152.25 296.96 152.25 258.29 47.75"/><polygon class="cls-1" points="823.84 47.75 843.1 47.75 921.32 122.99 921.32 47.75 942.52 47.75 942.52 152.25 923.12 152.25 845.04 77.01 845.04 152.25 823.84 152.25 823.84 47.75"/><polygon class="cls-1" points="1005.19 65.51 958.91 65.51 958.91 47.75 1072.82 47.75 1072.82 65.51 1026.39 65.51 1026.39 152.25 1005.19 152.25 1005.19 65.51"/><path class="cls-1" d="m652.55,108.43c14.4-2.47,25.36-15.01,25.36-30.12,0-16.88-13.69-30.57-30.57-30.57h-81.81v104.5h20.9v-43.37h44.32l29.25,43.37h22.09l-29.55-43.82Zm-65.96-17.32l-.15-25.6h58.77c7.07,0,12.8,5.73,12.8,12.8s-5.73,12.8-12.8,12.8h-58.62Z"/><polygon class="cls-1" points="445.37 47.75 546.15 47.75 546.15 65.51 466.57 65.51 466.57 91.12 546.15 91.12 546.15 108.88 466.57 108.88 466.57 152.25 445.37 152.25 445.37 47.75"/><path class="cls-1" d="m688.96,100c0-32.02,24.45-53.26,61.41-53.26s61.41,21.25,61.41,53.26-24.59,53.26-61.41,53.26-61.41-21.25-61.41-53.26Zm102.16,0c0-22.12-16.3-35.94-40.75-35.94s-40.75,13.82-40.75,35.94,16.3,35.8,40.75,35.8,40.75-13.68,40.75-35.8Z"/></svg>