<svg width="1080" height="566" viewBox="0 0 1080 566" fill="none" xmlns="http://www.w3.org/2000/svg">
<g opacity="0.5">
<path d="M719.628 1355.27C912.909 1406.92 1111.68 1292.16 1163.59 1098.95C1215.5 905.743 1100.9 707.248 907.624 655.602C714.343 603.956 515.574 718.716 463.66 911.925C411.747 1105.13 526.348 1303.63 719.628 1355.27Z" stroke="#96C6CC" strokeWidth="0.603774" strokeMiterlimit="10"/>
<path d="M693.908 1357.85C889.145 1410.02 1089.93 1294.09 1142.36 1098.93C1194.8 903.765 1079.04 703.262 883.806 651.093C688.57 598.925 487.789 714.846 435.35 910.01C382.911 1105.17 498.671 1305.68 693.908 1357.85Z" stroke="#96C6CC" strokeWidth="0.603774" strokeMiterlimit="10"/>
<path d="M668.085 1360.79C865.483 1413.54 1068.49 1296.34 1121.51 1099.01C1174.53 901.685 1057.48 698.962 860.085 646.216C662.687 593.469 459.683 710.673 406.664 907.999C353.644 1105.32 470.686 1308.05 668.085 1360.79Z" stroke="#96C6CC" strokeWidth="0.603774" strokeMiterlimit="10"/>
<path d="M642.164 1364.1C841.925 1417.48 1047.36 1298.88 1101.01 1099.19C1154.67 899.501 1036.22 694.352 836.463 640.974C636.702 587.597 431.268 706.204 377.614 905.891C323.96 1105.58 442.403 1310.73 642.164 1364.1Z" stroke="#96C6CC" strokeWidth="0.603774" strokeMiterlimit="10"/>
<path d="M616.151 1367.76C818.467 1421.82 1026.53 1301.69 1080.87 1099.45C1135.21 897.212 1015.25 689.439 812.935 635.378C610.619 581.318 402.558 701.442 348.217 903.683C293.877 1105.92 413.835 1313.7 616.151 1367.76Z" stroke="#96C6CC" strokeWidth="0.603774" strokeMiterlimit="10"/>
<path d="M590.049 1371.75C795.105 1426.55 1005.98 1304.8 1061.06 1099.82C1116.14 894.835 994.554 684.248 789.498 629.455C584.442 574.663 373.563 696.414 318.486 901.394C263.41 1106.37 384.993 1316.96 590.049 1371.75Z" stroke="#96C6CC" strokeWidth="0.603774" strokeMiterlimit="10"/>
<path d="M563.856 1376.07C771.831 1431.64 985.712 1308.16 1041.57 1100.26C1097.43 892.363 974.12 678.778 766.144 623.205C558.169 567.633 344.289 691.117 288.428 899.015C232.568 1106.91 355.881 1320.5 563.856 1376.07Z" stroke="#96C6CC" strokeWidth="0.603774" strokeMiterlimit="10"/>
<path d="M537.397 1380.7C748.462 1437.1 965.52 1311.78 1022.21 1100.79C1078.9 889.804 953.755 673.046 742.69 616.648C531.625 560.25 314.567 685.568 257.877 896.555C201.186 1107.54 326.332 1324.3 537.397 1380.7Z" stroke="#96C6CC" strokeWidth="0.603774" strokeMiterlimit="10"/>
<path d="M511.043 1385.62C725.361 1442.89 945.765 1315.64 1003.33 1101.4C1060.89 887.159 933.819 667.059 719.501 609.792C505.183 552.524 284.778 679.775 227.214 894.013C169.65 1108.25 296.725 1328.35 511.043 1385.62Z" stroke="#96C6CC" strokeWidth="0.603774" strokeMiterlimit="10"/>
<path d="M484.615 1390.83C702.343 1449 926.253 1319.73 984.733 1102.08C1043.21 884.435 914.117 660.835 696.389 602.656C478.661 544.478 254.751 673.753 196.271 891.399C137.791 1109.05 266.887 1332.65 484.615 1390.83Z" stroke="#96C6CC" strokeWidth="0.603774" strokeMiterlimit="10"/>
<path d="M458.681 1396.3C679.966 1455.42 907.535 1324.04 966.971 1102.83C1026.41 881.631 895.201 654.376 673.915 595.247C452.63 536.118 225.06 667.505 165.625 888.709C106.189 1109.91 237.395 1337.17 458.681 1396.3Z" stroke="#96C6CC" strokeWidth="0.603774" strokeMiterlimit="10"/>
<path d="M432.109 1402.03C657.095 1462.15 888.469 1328.56 948.898 1103.66C1009.33 878.757 875.928 647.703 650.943 587.585C425.957 527.467 194.583 661.051 134.154 885.953C73.7244 1110.86 207.124 1341.91 432.109 1402.03Z" stroke="#96C6CC" strokeWidth="0.603774" strokeMiterlimit="10"/>
<path d="M405.477 1408C634.297 1469.14 869.615 1333.28 931.074 1104.55C992.533 875.811 856.86 640.819 628.04 579.676C399.22 518.534 163.902 654.395 102.443 883.13C40.9838 1111.87 176.657 1346.86 405.477 1408Z" stroke="#96C6CC" strokeWidth="0.603774" strokeMiterlimit="10"/>
<path d="M378.589 1414.21C611.372 1476.41 850.766 1338.2 913.289 1105.5C975.813 872.803 837.79 633.74 605.007 571.539C372.224 509.337 132.83 647.551 70.3067 880.248C7.78309 1112.94 145.806 1352.01 378.589 1414.21Z" stroke="#96C6CC" strokeWidth="0.603774" strokeMiterlimit="10"/>
<path d="M351.831 1420.64C588.699 1483.93 832.293 1343.29 895.914 1106.51C959.535 869.73 819.09 626.472 582.222 563.179C345.354 499.886 101.759 640.526 38.1384 877.306C-25.4824 1114.09 114.962 1357.34 351.831 1420.64Z" stroke="#96C6CC" strokeWidth="0.603774" strokeMiterlimit="10"/>
<path d="M325.021 1427.27C566.089 1491.69 814.004 1348.56 878.753 1107.58C943.502 866.596 800.567 619.025 559.498 554.61C318.429 490.194 70.5144 633.328 5.76535 874.307C-58.9837 1115.29 83.9517 1362.86 325.021 1427.27Z" stroke="#96C6CC" strokeWidth="0.603774" strokeMiterlimit="10"/>
<path d="M297.967 1434.11C543.346 1499.67 795.693 1353.98 861.599 1108.69C927.506 863.404 782.015 611.406 536.636 545.839C291.257 480.272 38.9099 625.965 -26.9968 871.253C-92.9036 1116.54 52.5875 1368.54 297.967 1434.11Z" stroke="#96C6CC" strokeWidth="0.603774" strokeMiterlimit="10"/>
<path d="M271.047 1441.13C520.841 1507.88 777.728 1359.56 844.82 1109.86C911.913 860.161 763.804 603.629 514.01 536.883C264.217 470.136 7.32955 618.45 -59.7629 868.151C-126.855 1117.85 21.2532 1374.38 271.047 1441.13Z" stroke="#96C6CC" strokeWidth="0.603774" strokeMiterlimit="10"/>
<path d="M244.081 1448.33C498.387 1516.29 759.915 1365.29 828.22 1111.08C896.524 856.868 745.74 595.702 491.433 527.749C237.127 459.796 -24.4011 610.79 -92.7056 865.002C-161.01 1119.21 -10.2258 1380.38 244.081 1448.33Z" stroke="#96C6CC" strokeWidth="0.603774" strokeMiterlimit="10"/>
<path d="M216.881 1455.71C475.794 1524.89 742.06 1371.16 811.602 1112.34C881.144 853.527 727.628 587.63 468.715 518.446C209.801 449.262 -56.4648 602.991 -126.007 861.808C-195.549 1120.63 -42.0328 1386.52 216.881 1455.71Z" stroke="#96C6CC" strokeWidth="0.603774" strokeMiterlimit="10"/>
<path d="M189.829 1463.24C453.438 1533.68 724.532 1377.16 795.335 1113.65C866.138 850.138 709.838 579.419 446.23 508.98C182.621 438.542 -88.4734 595.058 -159.276 858.569C-230.08 1122.08 -73.7796 1392.8 189.829 1463.24Z" stroke="#96C6CC" strokeWidth="0.603774" strokeMiterlimit="10"/>
<path d="M162.732 1470.92C431.118 1542.63 707.127 1383.28 779.213 1114.99C851.3 846.707 692.167 571.08 423.78 499.365C155.393 427.65 -120.615 587.004 -192.702 855.291C-264.788 1123.58 -105.655 1399.2 162.732 1470.92Z" stroke="#96C6CC" strokeWidth="0.603774" strokeMiterlimit="10"/>
<path d="M135.602 1478.75C408.848 1551.76 689.852 1389.52 763.244 1116.38C836.635 843.232 674.622 562.616 401.376 489.603C128.13 416.59 -152.874 578.828 -226.266 851.972C-299.657 1125.12 -137.644 1405.73 135.602 1478.75Z" stroke="#96C6CC" strokeWidth="0.603774" strokeMiterlimit="10"/>
<path d="M108.997 1486.71C387.177 1561.04 673.256 1395.88 747.973 1117.8C822.69 839.722 657.75 554.038 379.57 479.707C101.39 405.375 -184.689 570.543 -259.406 848.619C-334.123 1126.7 -169.183 1412.38 108.997 1486.71Z" stroke="#96C6CC" strokeWidth="0.603774" strokeMiterlimit="10"/>
<path d="M81.7923 1494.8C364.977 1570.47 656.203 1402.33 732.264 1119.25C808.325 836.175 640.418 545.352 357.233 469.683C74.0488 394.014 -217.177 562.153 -293.238 845.232C-369.299 1128.31 -201.392 1419.13 81.7923 1494.8Z" stroke="#96C6CC" strokeWidth="0.603774" strokeMiterlimit="10"/>
<path d="M54.5528 1503.02C342.81 1580.05 639.252 1408.89 716.676 1120.74C794.099 832.594 623.185 536.561 334.928 459.537C46.6707 382.512 -249.772 553.663 -327.195 841.814C-404.619 1129.96 -233.704 1426 54.5528 1503.02Z" stroke="#96C6CC" strokeWidth="0.603774" strokeMiterlimit="10"/>
<path d="M27.0978 1511.35C320.492 1589.75 622.217 1415.55 701.02 1122.26C779.823 828.977 605.863 527.669 312.469 449.272C19.0752 370.875 -282.65 545.076 -361.453 838.361C-440.256 1131.65 -266.296 1432.95 27.0978 1511.35Z" stroke="#96C6CC" strokeWidth="0.603774" strokeMiterlimit="10"/>
<path d="M-340.34 1259.34C-185.913 1526.82 156.407 1618.29 424.253 1463.65C692.1 1309.01 784.044 966.815 629.617 699.339C475.19 431.864 132.87 340.393 -134.977 495.035C-402.823 649.676 -494.767 991.869 -340.34 1259.34Z" stroke="#96C6CC" strokeWidth="0.603774" strokeMiterlimit="10"/>
<path d="M-373.648 1263.31C-216.503 1535.49 131.843 1628.57 404.404 1471.21C676.966 1313.85 770.528 965.631 613.383 693.447C456.237 421.263 107.891 328.182 -164.67 485.545C-437.231 642.908 -530.794 991.125 -373.648 1263.31Z" stroke="#96C6CC" strokeWidth="0.603774" strokeMiterlimit="10"/>
<path d="M-406.479 1267.32C-246.587 1544.26 107.847 1638.97 385.172 1478.86C662.497 1318.74 757.695 964.439 597.803 687.498C437.911 410.557 83.4769 315.85 -193.848 475.963C-471.173 636.077 -566.371 990.379 -406.479 1267.32Z" stroke="#96C6CC" strokeWidth="0.603774" strokeMiterlimit="10"/>
<path d="M-439.959 1271.38C-277.294 1553.13 83.2872 1649.48 365.422 1486.59C647.556 1323.7 744.405 963.25 581.74 681.506C419.075 399.762 58.4937 303.411 -223.641 466.302C-505.775 629.192 -602.624 989.64 -439.959 1271.38Z" stroke="#96C6CC" strokeWidth="0.603774" strokeMiterlimit="10"/>
</g>
</svg>
