<svg width="2073" height="1336" viewBox="0 0 2073 1336" fill="none" xmlns="http://www.w3.org/2000/svg">
<g clip-path="url(#clip0_1911_10404)">
<g opacity="0.3">
<path d="M1266.68 -1057.45C971.293 -1263.24 564.944 -1190.65 359.07 -895.33C153.197 -600.008 225.76 -193.781 521.144 12.0029C816.528 217.787 1222.88 145.202 1428.75 -150.12C1634.62 -445.441 1562.06 -851.668 1266.68 -1057.45Z" stroke="white" stroke-width="0.521509" stroke-miterlimit="10"/>
<path d="M1311.56 -1043.93C1014.14 -1251.13 604.987 -1178.05 397.694 -880.689C190.402 -583.331 263.465 -174.304 560.885 32.8984C858.305 240.101 1267.46 167.016 1474.75 -130.342C1682.04 -427.699 1608.98 -836.726 1311.56 -1043.93Z" stroke="white" stroke-width="0.521509" stroke-miterlimit="10"/>
<path d="M1356.87 -1031.03C1057.06 -1239.9 644.629 -1166.23 435.672 -866.483C226.716 -566.74 300.366 -154.43 600.173 54.435C899.98 263.3 1312.41 189.629 1521.37 -110.115C1730.33 -409.859 1656.68 -822.168 1356.87 -1031.03Z" stroke="white" stroke-width="0.521509" stroke-miterlimit="10"/>
<path d="M1402.63 -1018.77C1100.09 -1229.53 683.904 -1155.19 473.046 -852.719C262.187 -550.246 336.507 -134.183 639.043 76.5834C941.58 287.35 1357.77 213.008 1568.63 -89.4648C1779.49 -391.937 1705.17 -808 1402.63 -1018.77Z" stroke="white" stroke-width="0.521509" stroke-miterlimit="10"/>
<path d="M1448.8 -1007.1C1143.2 -1220 722.798 -1144.91 509.805 -839.371C296.813 -533.837 371.885 -113.563 677.483 99.337C983.082 312.237 1403.48 237.142 1616.48 -68.3917C1829.47 -373.926 1754.4 -794.2 1448.8 -1007.1Z" stroke="white" stroke-width="0.521509" stroke-miterlimit="10"/>
<path d="M1495.38 -996.014C1186.4 -1211.27 761.342 -1135.35 545.991 -826.429C330.641 -517.512 406.544 -92.5853 715.525 122.672C1024.51 337.929 1449.56 262.003 1664.91 -46.9139C1880.26 -355.831 1804.36 -780.757 1495.38 -996.014Z" stroke="white" stroke-width="0.521509" stroke-miterlimit="10"/>
<path d="M1542.36 -985.503C1229.68 -1203.34 799.542 -1126.5 581.613 -813.887C363.685 -501.273 440.497 -71.2607 753.177 146.573C1065.86 364.406 1496 287.571 1713.93 -25.0428C1931.86 -337.657 1855.04 -767.67 1542.36 -985.503Z" stroke="white" stroke-width="0.521509" stroke-miterlimit="10"/>
<path d="M1589.72 -975.524C1273.04 -1196.14 837.395 -1118.33 616.679 -801.714C395.963 -485.101 473.757 -49.5878 790.437 171.032C1107.12 391.652 1542.76 313.834 1763.48 -2.77864C1984.19 -319.391 1906.4 -754.904 1589.72 -975.524Z" stroke="white" stroke-width="0.521509" stroke-miterlimit="10"/>
<path d="M1637.43 -966.082C1316.46 -1189.69 874.919 -1110.82 651.214 -789.918C427.509 -469.017 506.357 -27.6055 827.326 196.002C1148.29 419.61 1589.84 340.738 1813.54 19.8376C2037.25 -301.063 1958.4 -742.475 1637.43 -966.082Z" stroke="white" stroke-width="0.521509" stroke-miterlimit="10"/>
<path d="M1685.52 -957.142C1359.99 -1183.93 912.156 -1103.94 685.267 -778.47C458.378 -453.001 538.348 -5.30651 863.885 221.484C1189.42 448.275 1637.25 368.281 1864.14 42.8119C2091.03 -282.657 2011.06 -730.351 1685.52 -957.142Z" stroke="white" stroke-width="0.521509" stroke-miterlimit="10"/>
<path d="M1733.92 -948.691C1403.55 -1178.85 949.063 -1097.67 718.803 -767.364C488.543 -437.06 569.702 17.2859 900.075 247.446C1230.45 477.606 1684.93 396.423 1915.19 66.1192C2145.45 -264.185 2064.29 -718.531 1733.92 -948.691Z" stroke="white" stroke-width="0.521509" stroke-miterlimit="10"/>
<path d="M1782.67 -940.698C1447.2 -1174.41 985.713 -1091.97 751.904 -756.576C518.095 -421.181 600.504 40.1684 935.97 273.876C1271.44 507.584 1732.92 425.15 1966.73 89.7545C2200.54 -245.641 2118.13 -706.99 1782.67 -940.698Z" stroke="white" stroke-width="0.521509" stroke-miterlimit="10"/>
<path d="M1831.71 -933.151C1490.9 -1170.58 1022.07 -1086.83 784.545 -746.1C547.017 -405.37 630.737 63.3185 971.539 300.744C1312.34 538.17 1781.17 454.424 2018.7 113.694C2256.23 -227.037 2172.51 -695.726 1831.71 -933.151Z" stroke="white" stroke-width="0.521509" stroke-miterlimit="10"/>
<path d="M1881.04 -926.016C1534.67 -1167.32 1058.18 -1082.21 816.771 -735.909C575.361 -389.61 660.449 86.7368 1006.82 328.042C1353.19 569.348 1829.68 484.234 2071.09 137.935C2312.5 -208.363 2227.42 -684.711 1881.04 -926.016Z" stroke="white" stroke-width="0.521509" stroke-miterlimit="10"/>
<path d="M1930.66 -919.292C1578.5 -1164.63 1094.04 -1078.09 848.594 -726.006C603.147 -373.917 689.658 110.395 1041.82 355.735C1393.98 601.075 1878.44 514.538 2123.89 162.449C2369.34 -189.64 2282.83 -673.952 1930.66 -919.292Z" stroke="white" stroke-width="0.521509" stroke-miterlimit="10"/>
<path d="M1980.54 -912.947C1622.38 -1162.47 1129.66 -1074.46 880.033 -716.367C630.403 -358.277 718.389 134.29 1076.55 383.811C1434.72 633.333 1927.44 545.321 2177.07 187.231C2426.7 -170.859 2338.71 -663.425 1980.54 -912.947Z" stroke="white" stroke-width="0.521509" stroke-miterlimit="10"/>
<path d="M2030.69 -906.972C1666.33 -1160.81 1165.08 -1071.28 911.123 -706.987C657.169 -342.695 746.679 158.403 1111.05 412.246C1475.42 666.089 1976.66 576.553 2230.62 212.261C2484.57 -152.031 2395.06 -653.128 2030.69 -906.972Z" stroke="white" stroke-width="0.521509" stroke-miterlimit="10"/>
<path d="M2081.07 -901.335C1710.3 -1159.63 1200.26 -1068.53 941.849 -697.841C683.439 -327.157 774.519 182.734 1145.28 441.032C1516.04 699.33 2026.09 608.222 2284.5 237.538C2542.91 -133.147 2451.83 -643.038 2081.07 -901.335Z" stroke="white" stroke-width="0.521509" stroke-miterlimit="10"/>
<path d="M2131.67 -896.03C1754.33 -1158.91 1235.24 -1066.19 972.248 -688.927C709.256 -311.668 801.951 207.265 1179.29 470.144C1556.63 733.022 2075.72 640.299 2338.71 263.04C2601.7 -114.218 2509.01 -633.152 2131.67 -896.03Z" stroke="white" stroke-width="0.521509" stroke-miterlimit="10"/>
<path d="M2182.49 -891.029C1798.4 -1158.61 1270.03 -1064.23 1002.34 -680.223C734.642 -296.219 828.994 231.992 1213.08 499.571C1597.16 767.15 2125.53 672.768 2393.23 288.765C2660.92 -95.2388 2566.57 -623.451 2182.49 -891.029Z" stroke="white" stroke-width="0.521509" stroke-miterlimit="10"/>
<path d="M2233.53 -886.328C1842.54 -1158.72 1304.66 -1062.64 1032.15 -671.73C759.635 -280.817 855.685 256.898 1246.68 529.29C1637.67 801.683 2175.55 705.604 2448.06 314.692C2720.57 -76.2208 2624.52 -613.936 2233.53 -886.328Z" stroke="white" stroke-width="0.521509" stroke-miterlimit="10"/>
<path d="M2284.75 -881.899C1886.7 -1159.21 1339.1 -1061.4 1061.67 -663.423C784.232 -265.449 882.017 281.981 1280.08 559.294C1678.13 836.608 2225.73 738.793 2503.16 340.818C2780.6 -57.1561 2682.81 -604.585 2284.75 -881.899Z" stroke="white" stroke-width="0.521509" stroke-miterlimit="10"/>
<path d="M2336.17 -877.747C1930.9 -1160.08 1373.38 -1060.5 1090.92 -655.313C808.46 -250.129 908.016 307.218 1313.29 589.556C1718.56 871.893 2276.07 772.306 2558.53 367.122C2840.99 -38.0625 2741.43 -595.409 2336.17 -877.747Z" stroke="white" stroke-width="0.521509" stroke-miterlimit="10"/>
<path d="M2387.75 -873.841C1975.13 -1161.3 1407.5 -1059.91 1119.92 -647.374C832.338 -234.842 933.7 332.612 1346.32 620.069C1758.94 907.527 2326.56 806.134 2614.15 393.602C2901.73 -18.9302 2800.37 -586.384 2387.75 -873.841Z" stroke="white" stroke-width="0.521509" stroke-miterlimit="10"/>
<path d="M2439.5 -870.171C2019.4 -1162.84 1441.48 -1059.61 1148.69 -639.598C855.893 -219.589 959.093 358.151 1379.19 650.819C1799.29 943.487 2377.2 840.256 2670 420.246C2962.79 0.23675 2859.59 -577.503 2439.5 -870.171Z" stroke="white" stroke-width="0.521509" stroke-miterlimit="10"/>
<path d="M2491.4 -866.724C2063.7 -1164.69 1475.32 -1059.59 1177.23 -631.977C879.132 -204.364 984.2 383.834 1411.9 681.8C1839.61 979.767 2427.98 874.667 2726.08 447.054C3024.17 19.4409 2919.11 -568.757 2491.4 -866.724Z" stroke="white" stroke-width="0.521509" stroke-miterlimit="10"/>
<path d="M2543.46 -863.497C2108.03 -1166.84 1509.03 -1059.85 1205.55 -624.512C902.075 -189.177 1009.04 409.643 1444.47 712.99C1879.89 1016.34 2478.89 909.339 2782.37 474.005C3085.85 38.6697 2978.89 -560.15 2543.46 -863.497Z" stroke="white" stroke-width="0.521509" stroke-miterlimit="10"/>
<path d="M2595.66 -860.474C2152.4 -1169.28 1542.62 -1060.36 1233.69 -617.189C924.747 -174.022 1033.64 435.571 1476.9 744.375C1920.16 1053.18 2529.93 944.257 2838.87 501.09C3147.81 57.9235 3038.92 -551.67 2595.66 -860.474Z" stroke="white" stroke-width="0.521509" stroke-miterlimit="10"/>
<path d="M2647.99 -857.632C2196.79 -1171.97 1576.09 -1061.09 1261.62 -609.989C947.15 -158.884 1057.99 461.628 1509.19 775.964C1960.39 1090.3 2581.09 979.427 2895.56 528.321C3210.04 77.2162 3099.2 -543.296 2647.99 -857.632Z" stroke="white" stroke-width="0.521509" stroke-miterlimit="10"/>
<path d="M2700.44 -854.981C2241.2 -1174.92 1609.44 -1062.07 1289.36 -602.925C969.284 -143.781 1082.1 487.789 1541.34 807.727C2000.58 1127.66 2632.34 1014.82 2952.42 555.671C3272.5 96.527 3159.68 -535.043 2700.44 -854.981Z" stroke="white" stroke-width="0.521509" stroke-miterlimit="10"/>
<path d="M3178.66 -187.8C3078.52 -748.455 2542.69 -1121.74 1981.87 -1021.57C1421.04 -921.389 1047.59 -385.678 1147.74 174.976C1247.89 735.631 1783.71 1108.92 2344.53 1008.74C2905.36 908.565 3278.81 372.854 3178.66 -187.8Z" stroke="white" stroke-width="0.521509" stroke-miterlimit="10"/>
<path d="M3238.85 -173.796C3136.94 -744.319 2591.68 -1124.18 2020.98 -1022.24C1450.29 -920.298 1070.26 -375.157 1172.17 195.367C1274.08 765.891 1819.34 1145.75 2390.04 1043.81C2960.73 941.869 3340.76 396.728 3238.85 -173.796Z" stroke="white" stroke-width="0.521509" stroke-miterlimit="10"/>
<path d="M3299.22 -159.803C3195.53 -740.298 2640.74 -1126.8 2060.07 -1023.07C1479.4 -919.351 1092.73 -364.683 1196.42 215.812C1300.12 796.307 1854.9 1182.81 2435.57 1079.08C3016.24 975.36 3402.91 420.692 3299.22 -159.803Z" stroke="white" stroke-width="0.521509" stroke-miterlimit="10"/>
<path d="M3359.77 -145.853C3254.28 -736.416 2689.87 -1129.62 2099.13 -1024.1C1508.39 -918.575 1115.01 -354.287 1220.5 236.276C1325.99 826.839 1890.4 1220.04 2481.14 1114.52C3071.88 1009 3465.26 444.71 3359.77 -145.853Z" stroke="white" stroke-width="0.521509" stroke-miterlimit="10"/>
</g>
<path d="M1892.43 988.938C1875.98 984.457 1859.68 979.575 1843.54 974.301" stroke="url(#paint0_linear_1911_10404)" stroke-width="1.30377"/>
<path d="M1364.4 461.258C1393.27 464.248 1422.22 465.58 1451.1 465.282" stroke="url(#paint1_linear_1911_10404)" stroke-width="1.30377"/>
<path d="M1202.73 268.262C1183.89 269.78 1164.96 270.529 1146.02 270.499" stroke="url(#paint2_linear_1911_10404)" stroke-width="1.30377"/>
</g>
<defs>
<linearGradient id="paint0_linear_1911_10404" x1="1891.82" y1="988.921" x2="1883.61" y2="961.948" gradientUnits="userSpaceOnUse">
<stop stop-color="#F028B6" stop-opacity="0"/>
<stop offset="0.190851" stop-color="#F028B6"/>
<stop offset="0.811531" stop-color="#F028B6"/>
<stop offset="1" stop-color="#F028B6" stop-opacity="0"/>
</linearGradient>
<linearGradient id="paint1_linear_1911_10404" x1="1450.43" y1="465.555" x2="1368.2" y2="444.525" gradientUnits="userSpaceOnUse">
<stop stop-color="#F028B6" stop-opacity="0"/>
<stop offset="0.190851" stop-color="#F028B6"/>
<stop offset="0.811531" stop-color="#F028B6"/>
<stop offset="1" stop-color="#F028B6" stop-opacity="0"/>
</linearGradient>
<linearGradient id="paint2_linear_1911_10404" x1="1202.08" y1="268.577" x2="1150.42" y2="254.135" gradientUnits="userSpaceOnUse">
<stop stop-color="#F028B6" stop-opacity="0"/>
<stop offset="0.190851" stop-color="#F028B6"/>
<stop offset="0.811531" stop-color="#F028B6"/>
<stop offset="1" stop-color="#F028B6" stop-opacity="0"/>
</linearGradient>
<clipPath id="clip0_1911_10404">
<rect width="2073" height="1335.06" fill="white"/>
</clipPath>
</defs>
</svg>
