<svg width="1080" height="660" viewBox="0 0 1080 660" fill="none" xmlns="http://www.w3.org/2000/svg">
<g opacity="0.5">
<path d="M283.839 -690.073C95.1282 -740.498 -98.9419 -628.452 -149.628 -439.81C-200.314 -251.169 -88.4228 -57.3676 100.288 -6.94254C289 43.4825 483.07 -68.5638 533.756 -257.205C584.442 -445.846 472.551 -639.648 283.839 -690.073Z" stroke="#96C6CC" strokeWidth="0.603774" strokeMiterlimit="10"/>
<path d="M309.244 -691.462C119.231 -742.235 -76.1763 -629.416 -127.212 -439.475C-178.247 -249.533 -65.5848 -54.3955 124.427 -3.62279C314.439 47.1498 509.847 -65.6689 560.883 -255.611C611.918 -445.552 499.256 -640.69 309.244 -691.462Z" stroke="#96C6CC" strokeWidth="0.603774" strokeMiterlimit="10"/>
<path d="M334.755 -693.253C143.218 -744.433 -53.758 -630.709 -105.203 -439.243C-156.648 -247.777 -43.0815 -51.0738 148.455 0.106255C339.992 51.2863 536.968 -62.4378 588.413 -253.904C639.859 -445.37 526.292 -642.073 334.755 -693.253Z" stroke="#96C6CC" strokeWidth="0.603774" strokeMiterlimit="10"/>
<path d="M360.372 -695.444C167.091 -747.09 -31.6779 -632.33 -83.5914 -439.121C-135.505 -245.912 -20.9042 -47.4183 172.376 4.22771C365.657 55.8737 564.426 -58.8857 616.34 -252.095C668.253 -445.304 553.652 -643.798 360.372 -695.444Z" stroke="#96C6CC" strokeWidth="0.603774" strokeMiterlimit="10"/>
<path d="M386.092 -698.017C190.855 -750.185 -9.92609 -634.264 -62.365 -439.1C-114.804 -243.935 0.95665 -43.4322 196.194 8.73653C391.43 60.9053 592.211 -55.0157 644.65 -250.18C697.089 -445.345 581.329 -645.848 386.092 -698.017Z" stroke="#96C6CC" strokeWidth="0.603774" strokeMiterlimit="10"/>
<path d="M411.915 -700.963C214.517 -753.71 11.5132 -636.505 -41.5063 -439.18C-94.5258 -241.855 22.5163 -39.1319 219.915 13.6144C417.313 66.3607 620.317 -50.8437 673.336 -248.169C726.356 -445.494 609.314 -648.217 411.915 -700.963Z" stroke="#96C6CC" strokeWidth="0.603774" strokeMiterlimit="10"/>
<path d="M437.836 -704.275C238.075 -757.652 32.6413 -639.045 -21.0128 -439.358C-74.6669 -239.671 43.7761 -34.5218 243.537 18.8558C443.298 72.2334 648.732 -46.3737 702.386 -246.061C756.04 -445.748 637.597 -650.897 437.836 -704.275Z" stroke="#96C6CC" strokeWidth="0.603774" strokeMiterlimit="10"/>
<path d="M463.849 -707.928C261.533 -761.989 53.4713 -641.865 -0.869092 -439.623C-55.2095 -237.382 64.7486 -29.6088 267.065 24.4516C469.381 78.5119 677.442 -41.6123 731.783 -243.853C786.123 -446.095 666.165 -653.868 463.849 -707.928Z" stroke="#96C6CC" strokeWidth="0.603774" strokeMiterlimit="10"/>
<path d="M489.951 -711.925C284.895 -766.717 74.0157 -644.966 18.9393 -439.986C-36.137 -235.005 85.4457 -24.418 290.502 30.3745C495.558 85.1671 706.437 -36.5841 761.514 -241.564C816.59 -446.545 695.007 -657.132 489.951 -711.925Z" stroke="#96C6CC" strokeWidth="0.603774" strokeMiterlimit="10"/>
<path d="M516.144 -716.241C308.169 -771.813 94.2878 -648.329 38.4275 -440.431C-17.4329 -232.533 105.88 -18.9481 313.856 36.6244C521.831 92.1969 735.711 -31.2873 791.572 -239.185C847.432 -447.083 724.119 -660.668 516.144 -716.241Z" stroke="#96C6CC" strokeWidth="0.603774" strokeMiterlimit="10"/>
<path d="M542.603 -720.868C331.538 -777.266 114.48 -651.947 57.7898 -440.961C1.09955 -229.974 126.245 -13.216 337.31 43.1821C548.375 99.5802 765.433 -25.7385 822.123 -236.725C878.813 -447.712 753.668 -664.47 542.603 -720.868Z" stroke="#96C6CC" strokeWidth="0.603774" strokeMiterlimit="10"/>
<path d="M568.957 -725.789C354.639 -783.056 134.234 -655.806 76.6705 -441.567C19.1064 -227.328 146.181 -7.22919 360.499 50.0382C574.817 107.306 795.222 -19.9448 852.786 -234.184C910.35 -448.422 783.275 -668.522 568.957 -725.789Z" stroke="#96C6CC" strokeWidth="0.603774" strokeMiterlimit="10"/>
<path d="M595.385 -730.995C377.657 -789.174 153.747 -659.899 95.2674 -442.252C36.7876 -224.605 165.883 -1.00479 383.611 57.1736C601.339 115.352 825.249 -13.9226 883.729 -231.569C942.209 -449.216 813.113 -672.817 595.385 -730.995Z" stroke="#96C6CC" strokeWidth="0.603774" strokeMiterlimit="10"/>
<path d="M621.321 -736.466C400.036 -795.595 172.466 -664.208 113.031 -443.004C53.5956 -221.801 184.801 5.45367 406.087 64.5828C627.372 123.712 854.942 -7.67517 914.377 -228.879C973.812 -450.082 842.607 -677.336 621.321 -736.466Z" stroke="#96C6CC" strokeWidth="0.603774" strokeMiterlimit="10"/>
<path d="M647.891 -742.197C422.905 -802.315 191.531 -668.731 131.102 -443.829C70.6727 -218.927 204.072 12.1273 429.057 72.2451C654.043 132.363 885.417 -1.22109 945.846 -226.123C1006.28 -451.025 872.876 -682.08 647.891 -742.197Z" stroke="#96C6CC" strokeWidth="0.603774" strokeMiterlimit="10"/>
<path d="M674.523 -748.17C445.703 -809.313 210.385 -673.452 148.926 -444.717C87.4666 -215.981 223.14 19.0111 451.96 80.1536C680.78 141.296 916.098 5.43521 977.557 -223.3C1039.02 -452.035 903.343 -687.028 674.523 -748.17Z" stroke="#96C6CC" strokeWidth="0.603774" strokeMiterlimit="10"/>
<path d="M701.411 -754.379C468.628 -816.58 229.234 -678.366 166.711 -445.669C104.187 -212.973 242.21 26.0896 474.993 88.291C707.776 150.492 947.17 12.2786 1009.69 -220.418C1072.22 -453.115 934.194 -692.177 701.411 -754.379Z" stroke="#96C6CC" strokeWidth="0.603774" strokeMiterlimit="10"/>
<path d="M728.169 -760.807C491.301 -824.1 247.707 -683.46 184.086 -446.68C120.465 -209.9 260.91 33.3576 497.778 96.6505C734.646 159.943 978.241 19.3042 1041.86 -217.476C1105.48 -454.256 965.037 -697.514 728.169 -760.807Z" stroke="#96C6CC" strokeWidth="0.603774" strokeMiterlimit="10"/>
<path d="M754.981 -767.444C513.912 -831.859 265.998 -688.725 201.249 -447.746C136.5 -206.766 279.435 40.8051 520.504 105.22C761.573 169.636 1009.49 26.5024 1074.24 -214.477C1138.99 -455.457 996.05 -703.028 754.981 -767.444Z" stroke="#96C6CC" strokeWidth="0.603774" strokeMiterlimit="10"/>
<path d="M782.033 -774.276C536.654 -839.843 284.307 -694.15 218.401 -448.862C152.494 -203.574 297.985 48.4237 543.364 113.991C788.743 179.558 1041.09 33.8653 1107 -211.423C1172.9 -456.711 1027.41 -708.709 782.033 -774.276Z" stroke="#96C6CC" strokeWidth="0.603774" strokeMiterlimit="10"/>
<path d="M808.953 -781.3C559.159 -848.047 302.272 -699.733 235.18 -450.032C168.087 -200.331 316.196 56.2006 565.99 122.947C815.783 189.694 1072.67 41.3802 1139.76 -208.321C1206.86 -458.022 1058.75 -714.554 808.953 -781.3Z" stroke="#96C6CC" strokeWidth="0.603774" strokeMiterlimit="10"/>
<path d="M835.919 -788.503C581.613 -856.455 320.085 -705.462 251.78 -451.25C183.476 -197.038 334.26 64.1284 588.567 132.081C842.873 200.034 1104.4 49.0403 1172.71 -205.172C1241.01 -459.384 1090.23 -720.55 835.919 -788.503Z" stroke="#96C6CC" strokeWidth="0.603774" strokeMiterlimit="10"/>
<path d="M863.119 -795.877C604.206 -865.061 337.94 -711.332 268.398 -452.514C198.856 -193.697 352.372 72.2005 611.285 141.384C870.199 210.568 1136.46 56.8391 1206.01 -201.978C1275.55 -460.796 1122.03 -726.693 863.119 -795.877Z" stroke="#96C6CC" strokeWidth="0.603774" strokeMiterlimit="10"/>
<path d="M890.171 -803.408C626.562 -873.846 355.468 -717.33 284.665 -453.819C213.862 -190.308 370.162 80.4114 633.77 150.85C897.379 221.288 1168.47 64.7715 1239.28 -198.74C1310.08 -462.25 1153.78 -732.97 890.171 -803.408Z" stroke="#96C6CC" strokeWidth="0.603774" strokeMiterlimit="10"/>
<path d="M917.266 -811.09C648.879 -882.805 372.871 -723.452 300.785 -455.164C228.698 -186.877 387.831 88.7497 656.218 160.465C924.605 232.18 1200.61 72.8262 1272.7 -195.461C1344.79 -463.749 1185.65 -739.375 917.266 -811.09Z" stroke="#96C6CC" strokeWidth="0.603774" strokeMiterlimit="10"/>
<path d="M944.398 -818.916C671.152 -891.929 390.147 -729.691 316.756 -456.547C243.365 -183.402 405.378 97.2138 678.624 170.227C951.87 243.24 1232.87 81.0021 1306.27 -192.142C1379.66 -465.286 1217.64 -745.902 944.398 -818.916Z" stroke="#96C6CC" strokeWidth="0.603774" strokeMiterlimit="10"/>
<path d="M971.003 -826.881C692.823 -901.213 406.744 -736.045 332.027 -457.968C257.31 -179.892 422.25 105.792 700.43 180.124C978.61 254.455 1264.69 89.2873 1339.41 -188.789C1414.12 -466.866 1249.18 -752.549 971.003 -826.881Z" stroke="#96C6CC" strokeWidth="0.603774" strokeMiterlimit="10"/>
<path d="M998.208 -834.974C715.023 -910.643 423.797 -742.504 347.736 -459.424C271.675 -176.345 439.582 114.478 722.767 190.147C1005.95 265.816 1297.18 97.677 1373.24 -185.403C1449.3 -468.482 1281.39 -759.305 998.208 -834.974Z" stroke="#96C6CC" strokeWidth="0.603774" strokeMiterlimit="10"/>
<path d="M1025.45 -843.191C737.19 -920.215 440.747 -749.064 363.324 -460.914C285.901 -172.764 456.815 123.269 745.072 200.293C1033.33 277.318 1329.77 106.166 1407.2 -181.984C1484.62 -470.134 1313.7 -766.166 1025.45 -843.191Z" stroke="#96C6CC" strokeWidth="0.603774" strokeMiterlimit="10"/>
<path d="M1052.9 -851.521C759.508 -929.918 457.783 -755.717 378.98 -462.432C300.177 -169.147 474.137 132.161 767.531 210.558C1060.92 288.955 1362.65 114.754 1441.45 -178.531C1520.26 -471.816 1346.3 -773.124 1052.9 -851.521Z" stroke="#96C6CC" strokeWidth="0.603774" strokeMiterlimit="10"/>
<path d="M1420.34 -599.515C1265.91 -866.99 923.593 -958.461 655.746 -803.82C387.9 -649.178 295.956 -306.985 450.383 -39.5096C604.81 227.966 947.13 319.436 1214.98 164.795C1482.82 10.1541 1574.77 -332.039 1420.34 -599.515Z" stroke="#96C6CC" strokeWidth="0.603774" strokeMiterlimit="10"/>
<path d="M1453.65 -603.48C1296.5 -875.664 948.157 -968.744 675.596 -811.381C403.034 -654.018 309.471 -305.801 466.617 -33.6169C623.763 238.567 972.109 331.648 1244.67 174.285C1517.23 16.9214 1610.79 -331.296 1453.65 -603.48Z" stroke="#96C6CC" strokeWidth="0.603774" strokeMiterlimit="10"/>
<path d="M1486.48 -607.491C1326.59 -884.432 972.152 -979.139 694.828 -819.026C417.503 -658.912 322.305 -304.609 482.197 -27.6684C642.089 249.273 996.523 343.98 1273.85 183.867C1551.17 23.7531 1646.37 -330.55 1486.48 -607.491Z" stroke="#96C6CC" strokeWidth="0.603774" strokeMiterlimit="10"/>
<path d="M1519.96 -611.554C1357.29 -893.299 996.713 -989.649 714.578 -826.758C432.444 -663.868 335.595 -303.42 498.26 -21.6758C660.925 260.068 1021.51 356.419 1303.64 193.528C1585.78 30.6377 1682.62 -329.81 1519.96 -611.554Z" stroke="#96C6CC" strokeWidth="0.603774" strokeMiterlimit="10"/>
</g>
</svg>
