<svg xmlns="http://www.w3.org/2000/svg" width="284" height="281" viewBox="0 0 284 281" fill="none">
  <g clipPath="url(#a)">
    <path opacity=".302" fill-rule="evenodd" clip-rule="evenodd" d="M142.011 0C81.86 0 41.838 60.67 97.835 167.678c18.887 36.104-20.413 44.636-60.233 54.161C1.237 230.531-.112 249.238.006 281.957l.047 12.26h283.891l.048-11.88c.141-32.952-1.101-51.77-37.597-60.498-40.683-9.733-78.563-18.266-60.233-54.161C242.006 58.427 200.966 0 142.011 0Zm0 12.26c22.365 0 40.115 9.366 49.997 26.357 16.023 27.594 10.248 71.395-16.295 123.325-6.828 13.387-7.964 25.474-3.349 35.943 11.088 25.118 56.305 32.266 71.381 35.894 27.253 6.547 28.543 16.096 28.413 48.178H11.839c-.117-32.058 1.066-41.631 28.413-48.178 13.692-3.261 60.803-11.266 71.583-36.041 4.579-10.518 3.361-22.594-3.598-35.906-26.4-50.446-32.472-95.18-16.627-122.737 9.941-17.31 27.845-26.836 50.401-26.836Z" fill="#fff"/>
  </g>
  <defs>
    <clipPath id="a">
      <path fill="#fff" d="M0 0h284v289H0z"/>
    </clipPath>
  </defs>
</svg>
