<svg xmlns="http://www.w3.org/2000/svg" width="30" height="32"  viewBox="0 0 30 32">
  <path fill="url(#a)" d="M24.633 30a3.57 3.57 0 0 1-2.63-1.148L.95 6.097a3.567 3.567 0 0 1 .2-5.047 3.58 3.58 0 0 1 5.055.2L27.26 24.005a3.567 3.567 0 0 1-.2 5.047 3.567 3.567 0 0 1-2.427.948Z"/>
  <path fill="url(#b)" d="M3.628 29.898A3.574 3.574 0 0 1 .05 26.326v-9.49a3.574 3.574 0 0 1 3.577-3.57h14.564a3.067 3.067 0 0 0 3.066-3.062 3.067 3.067 0 0 0-3.066-3.061H3.628A3.574 3.574 0 0 1 .05 3.57 3.574 3.574 0 0 1 3.628 0h14.564c5.636 0 10.22 4.578 10.22 10.204 0 5.627-4.584 10.204-10.22 10.204H7.205v5.918a3.574 3.574 0 0 1-3.577 3.572Z"/>
  <defs>
    <radialGradient id="b" cx="0" cy="0" r="1" gradientTransform="matrix(36.74221 -38.67358 65.75259 62.46889 -1.687 35.918)" gradientUnits="userSpaceOnUse">
      <stop offset=".091" stop-color="#FC8D95"/>
      <stop offset=".14" stop-color="#EE747F"/>
      <stop offset=".226" stop-color="#F4A58D"/>
      <stop offset=".337" stop-color="#FFD7EA"/>
      <stop offset=".367" stop-color="#FFD9F8"/>
      <stop offset=".419" stop-color="#FEE2FA"/>
      <stop offset=".486" stop-color="#FDD3FB"/>
      <stop offset=".535" stop-color="#FCC2FB"/>
      <stop offset=".674" stop-color="#FCBFFB"/>
      <stop offset=".781" stop-color="#F08BF3"/>
      <stop offset=".877" stop-color="#EE70F8"/>
      <stop offset=".919" stop-color="#E752F4"/>
    </radialGradient>
    <linearGradient id="a" x1="1.073" x2="28.162" y1="2.143" y2="31.676" gradientUnits="userSpaceOnUse">
      <stop offset=".021" stop-color="#C6F0FA"/>
      <stop offset=".156" stop-color="#95D9FC"/>
      <stop offset=".351" stop-color="#5071FC"/>
      <stop offset=".435" stop-color="#506DFA"/>
      <stop offset=".519" stop-color="#4E61F2"/>
      <stop offset=".604" stop-color="#4C4DE6"/>
      <stop offset=".654" stop-color="#4A3DDC"/>
      <stop offset="1" stop-color="#400A7F"/>
    </linearGradient>
  </defs>
</svg>
