<svg width="633" height="259" viewBox="0 0 633 259" fill="none" xmlns="http://www.w3.org/2000/svg">
<path d="M16.118 65.405H23.566C24.497 79.237 35.137 88.281 50.831 88.281C65.86 88.281 75.968 81.099 75.968 69.129C75.968 55.563 62.934 52.637 48.304 50.11C33.408 47.583 18.246 43.593 18.246 25.904C18.246 10.077 30.615 0.101996 49.501 0.101996C68.52 0.101996 80.623 10.609 81.953 26.569H74.638C73.042 14.466 63.466 6.619 49.501 6.619C34.871 6.619 25.428 13.402 25.428 25.505C25.428 38.805 37.797 41.199 52.028 43.593C67.456 46.253 83.15 50.775 83.15 68.464C83.15 84.158 70.249 94.798 50.698 94.798C29.817 94.798 17.049 82.961 16.118 65.405ZM128.46 25.771C143.755 25.771 155.06 34.948 155.06 56.228V94H148.277V56.494C148.277 40.534 140.297 32.022 127.396 32.022C113.032 32.022 104.121 43.194 104.121 60.75V94H97.3384V0.899994H104.121V42.529C107.978 32.82 115.825 25.771 128.46 25.771ZM198.956 94.798C179.937 94.798 166.637 80.7 166.637 60.218C166.637 39.869 179.937 25.771 198.956 25.771C217.975 25.771 231.408 39.869 231.408 60.218C231.408 80.7 217.975 94.798 198.956 94.798ZM198.956 88.68C213.985 88.68 224.359 76.976 224.359 60.218C224.359 43.593 213.985 31.756 198.956 31.756C183.927 31.756 173.553 43.593 173.553 60.218C173.553 76.976 183.927 88.68 198.956 88.68ZM277.47 25.771C295.957 25.771 309.257 39.071 309.257 60.218C309.257 80.7 295.957 94.798 277.47 94.798C264.702 94.798 255.525 88.281 251.668 78.439V120.6H244.885V26.569H250.737L251.801 41.997C256.057 32.554 264.835 25.771 277.47 25.771ZM276.938 88.68C291.967 88.68 302.341 76.976 302.341 60.218C302.341 43.593 291.967 31.756 276.938 31.756C261.909 31.756 251.535 43.593 251.535 60.085C251.535 76.976 261.909 88.68 276.938 88.68ZM358.533 94V0.899994H365.316V94H358.533ZM411.054 94.798C392.035 94.798 378.735 80.7 378.735 60.218C378.735 39.869 392.035 25.771 411.054 25.771C430.073 25.771 443.506 39.869 443.506 60.218C443.506 80.7 430.073 94.798 411.054 94.798ZM411.054 88.68C426.083 88.68 436.457 76.976 436.457 60.218C436.457 43.593 426.083 31.756 411.054 31.756C396.025 31.756 385.651 43.593 385.651 60.218C385.651 76.976 396.025 88.68 411.054 88.68ZM486.377 94.798C467.358 94.798 454.457 81.099 454.457 60.351C454.457 39.869 467.491 25.771 486.51 25.771C501.805 25.771 512.312 34.283 515.105 48.248H508.056C505.662 38.14 497.682 31.756 486.377 31.756C471.481 31.756 461.373 43.593 461.373 60.351C461.373 77.109 471.614 88.68 486.377 88.68C497.549 88.68 505.662 82.296 507.923 72.321H515.105C512.445 86.02 501.672 94.798 486.377 94.798ZM587.608 87.749H590.135V94H586.145C578.165 94 574.84 90.542 575.106 82.562V80.168C570.983 88.547 562.87 94.798 549.171 94.798C534.807 94.798 525.364 87.483 525.364 75.513C525.364 62.878 534.674 55.43 551.964 55.43H574.84V49.578C574.84 38.406 567.658 31.756 555.023 31.756C543.585 31.756 536.403 37.209 534.674 45.455H527.891C529.62 33.219 539.861 25.771 555.289 25.771C572.18 25.771 581.623 34.416 581.623 49.844V81.232C581.623 86.419 583.618 87.749 587.608 87.749ZM574.84 66.735V61.282H551.432C538.93 61.282 532.28 66.203 532.28 75.114C532.28 83.493 538.93 88.946 549.703 88.946C565.663 88.946 574.84 79.636 574.84 66.735ZM599.206 94V0.899994H605.989V94H599.206ZM624.728 84.69C629.516 84.69 632.974 89.611 632.974 95.729C632.974 104.507 627.255 110.625 618.078 111.024V107.034C624.861 106.768 628.053 101.581 628.053 96.527C628.053 95.33 627.787 94 626.856 93.069C626.191 94.133 624.861 94.665 623.531 94.665C621.004 94.665 618.876 93.069 618.876 89.877C618.876 86.951 621.137 84.69 624.728 84.69ZM26.891 258.26C12.527 258.26 0.822999 253.206 0.822999 244.029C0.822999 234.32 10.665 229.798 22.236 224.744L22.369 224.345L15.985 221.818V221.02L32.211 203.73C23.699 201.735 18.113 195.484 18.113 186.706C18.113 171.145 31.679 161.303 46.575 161.303C53.89 161.303 59.875 164.096 63.466 168.884L66.392 155.318H74.239L74.505 155.85L63.998 169.549C65.727 172.342 66.791 175.534 66.791 179.125C66.791 194.686 53.225 204.794 38.196 204.528C36.467 204.528 34.871 204.262 33.275 203.996L25.162 216.099L43.915 223.414C54.954 227.803 59.21 233.256 59.21 238.975C59.21 251.477 44.314 258.26 26.891 258.26ZM38.462 202.799C49.368 202.799 57.747 189.499 57.747 176.598C57.747 168.751 53.89 163.032 46.442 163.032C35.536 163.032 27.024 176.332 27.024 189.366C27.024 197.213 30.881 202.799 38.462 202.799ZM27.423 256.398C39.925 256.398 50.565 251.211 50.565 241.768C50.565 237.512 47.639 234.187 40.457 231.394L24.497 225.143C15.719 230.197 8.936 235.118 8.936 243.63C8.936 252.275 17.315 256.398 27.423 256.398ZM95.2852 230.064C82.5172 230.064 74.1382 219.158 74.1382 204.794C74.1382 184.977 89.0342 161.303 109.25 161.303C122.151 161.303 130.53 172.209 130.53 186.573C130.53 206.523 115.767 230.064 95.2852 230.064ZM95.2852 228.468C110.846 228.468 121.22 199.075 121.22 182.583C121.22 169.682 116.831 162.899 109.383 162.899C95.0192 162.899 83.4482 192.425 83.4482 208.784C83.4482 221.685 87.8372 228.468 95.2852 228.468ZM181.572 257.196H154.041L154.174 256.398L159.228 255.6C161.755 255.334 162.42 254.536 162.952 252.275L183.966 168.219L176.518 166.49L176.651 165.692L194.473 161.835L195.005 162.234L183.966 202.666H184.631C198.596 173.007 204.581 161.303 215.753 161.303C224.93 161.303 230.383 169.549 230.383 183.647C230.383 206.39 214.024 230.064 193.941 230.064C188.355 230.064 182.769 227.271 179.311 223.68L172.262 252.142C171.73 254.403 172.129 255.201 174.39 255.467L181.705 256.398L181.572 257.196ZM193.941 228.468C208.438 228.468 220.807 203.863 220.807 184.179C220.807 173.14 217.349 166.623 212.029 166.623C204.98 166.623 198.596 176.997 182.503 210.247L180.774 214.237C181.705 221.286 186.36 228.468 193.941 228.468ZM251.848 230.064C245.464 230.064 241.075 226.34 241.075 218.36C241.075 215.966 241.607 213.173 242.405 209.981L253.444 168.219L245.996 166.49L246.129 165.692L263.818 161.835L264.483 162.234L251.848 209.981C251.183 212.508 250.651 214.769 250.651 217.562C250.651 221.552 252.912 224.345 256.769 224.345C262.621 224.345 269.67 217.828 288.556 178.327L292.147 163.697L301.191 161.835L301.723 162.234L287.758 218.094C287.226 220.089 286.827 221.685 286.827 223.015C286.827 224.744 287.492 226.074 289.354 226.074C292.546 226.074 295.339 221.685 298.265 214.636L299.196 214.769C296.004 224.345 291.482 230.064 284.699 230.064C279.911 230.064 277.517 227.005 277.517 223.414C277.517 221.951 277.783 220.222 278.315 218.094L287.758 184.179H287.226C270.335 222.217 261.956 230.064 251.848 230.064ZM334.082 230.064C323.708 230.064 317.856 224.744 311.871 216.232L331.555 137.097L323.575 135.102L323.708 134.304L342.062 130.181L342.594 130.58L332.486 171.012L324.107 202.666H324.772C338.737 173.007 344.722 161.303 355.761 161.303C365.071 161.303 370.524 169.549 370.524 183.647C370.524 206.39 354.165 230.064 334.082 230.064ZM334.082 228.468C348.579 228.468 360.948 203.863 360.948 184.179C360.948 173.14 357.49 166.623 352.17 166.623C345.121 166.623 338.338 176.731 322.644 210.247L320.915 214.237C321.846 221.286 326.501 228.468 334.082 228.468ZM387.204 230.064C382.416 230.064 380.022 227.005 380.022 223.414C380.022 221.951 380.288 220.222 380.82 218.36L401.169 137.097L393.322 135.102L393.455 134.304L411.543 130.181L412.075 130.58L390.263 218.094C389.731 220.089 389.332 221.685 389.332 223.015C389.332 224.744 389.997 226.074 391.859 226.074C395.051 226.074 397.844 221.685 400.77 214.636L401.701 214.769C398.509 224.345 393.987 230.064 387.204 230.064ZM436.689 148.934C433.364 148.934 430.571 146.407 430.571 142.816C430.571 139.225 433.364 136.831 436.689 136.831C440.28 136.831 442.94 139.225 442.94 142.816C442.94 146.407 440.28 148.934 436.689 148.934ZM420.463 230.064C415.675 230.064 413.281 227.138 413.281 223.414C413.281 221.951 413.946 219.69 414.345 217.828L426.847 168.219L419.399 166.49L419.532 165.692L437.221 161.835L437.753 162.234L423.389 218.094C422.857 220.089 422.591 221.685 422.591 223.015C422.591 224.744 423.256 226.074 425.118 226.074C428.31 226.074 431.103 221.685 434.029 214.636L434.96 214.769C431.635 224.345 427.246 230.064 420.463 230.064ZM464.492 230.064C453.586 230.064 445.606 221.286 445.606 205.725C445.606 185.11 462.364 161.303 481.649 161.303C488.432 161.303 494.683 163.697 498.008 166.357L493.619 183.248H492.688L490.161 166.224C487.368 163.431 484.575 162.899 481.516 162.899C467.684 162.899 455.049 185.642 455.049 204.528C455.049 217.562 460.369 224.877 469.147 224.877C474.6 224.877 480.718 222.217 488.565 211.577L489.363 212.242C482.048 224.079 474.334 230.064 464.492 230.064Z" fill="#152023"/>
</svg>
