<svg xmlns="http://www.w3.org/2000/svg" width="32" height="32" shape-rendering="geometricPrecision" text-rendering="geometricPrecision" image-rendering="optimizeQuality" fill-rule="evenodd" clip-rule="evenodd" viewBox="0 0 320 320">
  <path d="M320.006 60.757c-11.764 5.262-24.438 8.758-37.672 10.317a66.042 66.042 0 0 0 28.878-36.307c-12.674 7.494-26.758 12.992-41.681 15.933-12-12.75-29.044-20.675-47.924-20.675-36.254 0-65.605 29.368-65.605 65.599 0 5.114.567 10.116 1.677 14.941-54.55-2.764-102.91-28.878-135.285-68.611a65.712 65.712 0 0 0-8.882 33 65.488 65.488 0 0 0 29.174 54.603c-10.754-.319-20.87-3.319-29.753-8.18v.821c0 31.814 22.613 58.359 52.66 64.359a66.033 66.033 0 0 1-17.303 2.321c-4.24 0-8.327-.437-12.39-1.175 8.392 26.055 32.617 45.047 61.306 45.602-22.494 17.622-50.746 28.116-81.545 28.116-5.315 0-10.494-.325-15.667-.945 29.114 18.68 63.603 29.498 100.655 29.498 120.71 0 186.776-100.034 186.776-186.77 0-2.882-.065-5.675-.183-8.498 12.821-9.171 23.935-20.747 32.734-33.922l.029-.029z" fill="#fff"/>
</svg>
