<svg width="699" height="259" viewBox="0 0 699 259" fill="none" xmlns="http://www.w3.org/2000/svg">
<path d="M29.255 94L0.926 0.899994H8.507L33.378 84.557L58.515 0.899994H65.83L90.302 84.557L115.439 0.899994H122.887L94.425 94H85.913L61.84 12.737L37.767 94H29.255ZM164.907 25.771C180.202 25.771 191.507 34.948 191.507 56.228V94H184.724V56.494C184.724 40.534 176.744 32.022 163.843 32.022C149.479 32.022 140.568 43.194 140.568 60.75V94H133.785V0.899994H140.568V42.529C144.425 32.82 152.272 25.771 164.907 25.771ZM265.967 87.749H268.494V94H264.504C256.524 94 253.199 90.542 253.465 82.562V80.168C249.342 88.547 241.229 94.798 227.53 94.798C213.166 94.798 203.723 87.483 203.723 75.513C203.723 62.878 213.033 55.43 230.323 55.43H253.199V49.578C253.199 38.406 246.017 31.756 233.382 31.756C221.944 31.756 214.762 37.209 213.033 45.455H206.25C207.979 33.219 218.22 25.771 233.648 25.771C250.539 25.771 259.982 34.416 259.982 49.844V81.232C259.982 86.419 261.977 87.749 265.967 87.749ZM253.199 66.735V61.282H229.791C217.289 61.282 210.639 66.203 210.639 75.114C210.639 83.493 217.289 88.946 228.062 88.946C244.022 88.946 253.199 79.636 253.199 66.735ZM282.619 78.306V32.82H269.851V26.569H282.619V7.68299H289.402V26.569H307.623V32.82H289.402V78.173C289.402 85.089 291.929 87.749 298.978 87.749H308.288V94H298.446C287.008 94 282.619 89.079 282.619 78.306ZM383.849 94.798C364.83 94.798 351.929 81.099 351.929 60.351C351.929 39.869 364.963 25.771 383.982 25.771C399.277 25.771 409.784 34.283 412.577 48.248H405.528C403.134 38.14 395.154 31.756 383.849 31.756C368.953 31.756 358.845 43.593 358.845 60.351C358.845 77.109 369.086 88.68 383.849 88.68C395.021 88.68 403.134 82.296 405.395 72.321H412.577C409.917 86.02 399.144 94.798 383.849 94.798ZM485.079 87.749H487.606V94H483.616C475.636 94 472.311 90.542 472.577 82.562V80.168C468.454 88.547 460.341 94.798 446.642 94.798C432.278 94.798 422.835 87.483 422.835 75.513C422.835 62.878 432.145 55.43 449.435 55.43H472.311V49.578C472.311 38.406 465.129 31.756 452.494 31.756C441.056 31.756 433.874 37.209 432.145 45.455H425.362C427.091 33.219 437.332 25.771 452.76 25.771C469.651 25.771 479.094 34.416 479.094 49.844V81.232C479.094 86.419 481.089 87.749 485.079 87.749ZM472.311 66.735V61.282H448.903C436.401 61.282 429.751 66.203 429.751 75.114C429.751 83.493 436.401 88.946 447.174 88.946C463.134 88.946 472.311 79.636 472.311 66.735ZM527.799 25.771C543.094 25.771 554.399 34.948 554.399 56.228V94H547.616V56.494C547.616 40.534 539.769 32.022 526.735 32.022C512.371 32.022 503.46 43.194 503.46 60.75V94H496.677V26.569H502.529L503.593 40.933C507.45 32.155 515.43 25.771 527.799 25.771ZM606.988 94H599.54L635.583 0.899994H643.962L679.872 94H672.158L660.986 65.538H618.16L606.988 94ZM639.573 8.87999L620.288 58.888H658.858L639.573 8.87999ZM691.669 94V0.899994H698.851V94H691.669ZM17.152 230.064C7.975 230.064 2.522 221.951 2.522 207.853C2.522 185.11 18.881 161.303 38.964 161.303C44.683 161.303 50.136 163.963 53.727 167.687L61.308 137.097L53.461 135.102L53.594 134.304L71.682 130.181L72.214 130.58L50.269 218.094C49.737 220.089 49.338 221.685 49.338 223.015C49.338 224.744 50.003 226.074 51.865 226.074C55.057 226.074 57.85 221.685 60.776 214.636L61.707 214.769C58.382 224.345 53.993 230.064 47.21 230.064C42.422 230.064 40.028 227.005 40.028 223.414C40.028 221.951 40.294 220.222 40.826 218.36L48.939 188.834H48.274C34.309 218.493 28.324 230.064 17.152 230.064ZM20.876 224.744C27.393 224.744 33.511 215.7 50.003 181.785L51.998 177.529C51.333 170.214 46.678 162.899 38.964 162.899C24.467 162.899 12.098 187.637 12.098 207.188C12.098 218.227 15.556 224.744 20.876 224.744ZM93.546 230.064C80.778 230.064 72.399 219.158 72.399 204.794C72.399 184.977 87.295 161.303 107.511 161.303C120.412 161.303 128.791 172.209 128.791 186.573C128.791 206.523 114.028 230.064 93.546 230.064ZM93.546 228.468C109.107 228.468 119.481 199.075 119.481 182.583C119.481 169.682 115.092 162.899 107.644 162.899C93.28 162.899 81.709 192.425 81.709 208.784C81.709 221.685 86.098 228.468 93.546 228.468ZM152.701 258.26C150.573 258.26 148.179 257.861 145.652 257.462L147.115 250.679L147.78 250.28L161.08 254.536L161.612 254.403L183.025 166.091H174.646L174.779 165.426L184.089 162.367L184.488 156.249C185.286 143.215 192.734 130.447 211.354 130.447C213.615 130.447 215.743 130.713 217.738 131.112L215.876 138.959L215.078 139.092L198.054 134.836C192.335 139.225 190.606 145.742 192.202 163.298L208.827 162.5L209.226 163.032L208.029 165.692H192.468L175.311 234.187C170.656 253.073 163.607 258.26 152.701 258.26ZM224.857 230.064C212.089 230.064 203.71 219.158 203.71 204.794C203.71 184.977 218.606 161.303 238.822 161.303C251.723 161.303 260.102 172.209 260.102 186.573C260.102 206.523 245.339 230.064 224.857 230.064ZM224.857 228.468C240.418 228.468 250.792 199.075 250.792 182.583C250.792 169.682 246.403 162.899 238.955 162.899C224.591 162.899 213.02 192.425 213.02 208.784C213.02 221.685 217.409 228.468 224.857 228.468ZM277.55 229H268.373L283.535 168.219L276.087 166.49L276.22 165.692L294.042 161.835L294.574 162.234L282.072 207.321H282.737C298.032 170.48 304.682 161.569 315.721 161.569H317.982L315.721 170.613L315.189 171.012H304.15C300.293 174.736 294.042 184.179 281.673 212.907L277.55 229ZM338.113 257.196H328.005L328.271 255.866L356.999 229.266L351.546 167.953L344.231 166.224L344.364 165.559L359.792 161.835L360.324 162.234L364.314 219.956H364.846C379.476 202.4 387.456 190.563 390.116 181.918L388.786 163.431L397.697 161.835L398.229 162.234C398.229 179.657 388.121 195.883 358.595 229.532L338.113 257.196ZM422.539 230.064C409.771 230.064 401.392 219.158 401.392 204.794C401.392 184.977 416.288 161.303 436.504 161.303C449.405 161.303 457.784 172.209 457.784 186.573C457.784 206.523 443.021 230.064 422.539 230.064ZM422.539 228.468C438.1 228.468 448.474 199.075 448.474 182.583C448.474 169.682 444.085 162.899 436.637 162.899C422.273 162.899 410.702 192.425 410.702 208.784C410.702 221.685 415.091 228.468 422.539 228.468ZM479.222 230.064C472.838 230.064 468.449 226.34 468.449 218.36C468.449 215.966 468.981 213.173 469.779 209.981L480.818 168.219L473.37 166.49L473.503 165.692L491.192 161.835L491.857 162.234L479.222 209.981C478.557 212.508 478.025 214.769 478.025 217.562C478.025 221.552 480.286 224.345 484.143 224.345C489.995 224.345 497.044 217.828 515.93 178.327L519.521 163.697L528.565 161.835L529.097 162.234L515.132 218.094C514.6 220.089 514.201 221.685 514.201 223.015C514.201 224.744 514.866 226.074 516.728 226.074C519.92 226.074 522.713 221.685 525.639 214.636L526.57 214.769C523.378 224.345 518.856 230.064 512.073 230.064C507.285 230.064 504.891 227.005 504.891 223.414C504.891 221.951 505.157 220.222 505.689 218.094L515.132 184.179H514.6C497.709 222.217 489.33 230.064 479.222 230.064ZM563.717 134.57C579.145 134.57 589.253 146.141 589.253 159.175C589.253 178.194 573.692 188.036 552.412 189.898L548.422 204.129H547.358L550.018 182.051L550.816 181.519C569.17 179.923 584.731 171.677 584.731 154.653C584.731 149.2 582.603 143.348 576.751 139.491L554.008 143.88L553.343 143.481L555.471 135.501C558.53 134.836 560.525 134.57 563.717 134.57ZM544.432 229.931C541.107 229.931 538.314 227.404 538.314 223.813C538.314 220.355 541.107 217.828 544.432 217.828C547.757 217.828 550.55 220.355 550.55 223.813C550.55 227.404 547.757 229.931 544.432 229.931Z" fill="#152023"/>
</svg>
